<?xml version="1.0" standalone="no"?>
<!DOCTYPE svg PUBLIC "-//W3C//DTD SVG 20010904//EN"
 "http://www.w3.org/TR/2001/REC-SVG-20010904/DTD/svg10.dtd">
<svg version="1.0" xmlns="http://www.w3.org/2000/svg"
 width="612.000000pt" height="612.000000pt" viewBox="0 0 612.000000 612.000000"
 preserveAspectRatio="xMidYMid meet">
<metadata>
Created by potrace 1.14, written by Peter Selinger 2001-2017
</metadata>
<g transform="translate(0.000000,612.000000) scale(0.100000,-0.100000)"
fill="#000000" stroke="none">
<path d="M0 3060 l0 -3060 3060 0 3060 0 0 3060 0 3060 -3060 0 -3060 0 0
-3060z m3077 2776 c-4 -10 3 -12 31 -9 21 3 49 5 65 4 15 0 27 5 28 12 0 7 4
2 10 -11 5 -13 14 -20 20 -16 6 3 15 0 20 -7 7 -11 10 -9 15 9 8 27 24 29 24
3 0 -22 48 -35 69 -18 19 16 44 18 53 4 6 -9 12 -9 28 1 11 7 20 8 20 3 0 -11
69 -33 81 -25 4 2 12 -3 18 -13 9 -17 10 -17 30 1 18 16 21 17 27 3 5 -15 14
-15 62 -1 13 4 22 2 22 -5 0 -5 7 -8 15 -5 8 4 15 1 15 -5 0 -6 11 -11 24 -11
13 0 26 -7 29 -14 5 -12 13 -13 37 -6 25 7 43 4 86 -15 30 -13 61 -22 69 -19
11 5 15 -1 15 -19 0 -19 5 -24 23 -23 12 1 26 0 31 -2 19 -10 106 -11 106 -1
0 13 22 -8 38 -36 8 -14 12 -16 12 -5 0 13 1 13 10 0 6 -10 10 -11 10 -2 0 6
5 12 10 12 6 0 10 -6 10 -14 0 -9 7 -12 20 -9 14 4 20 0 20 -12 0 -15 1 -15
16 0 23 22 48 15 52 -15 2 -17 -6 -34 -23 -50 -14 -13 -25 -34 -25 -47 0 -13
-4 -23 -10 -23 -5 0 -10 -7 -10 -16 0 -10 6 -14 15 -10 8 3 15 1 15 -4 0 -6
-7 -10 -15 -10 -8 0 -15 -8 -14 -17 0 -11 3 -13 6 -5 2 6 9 12 14 12 6 0 5 -8
-1 -20 -11 -21 -5 -44 10 -35 4 3 4 -11 0 -31 l-8 -36 19 21 c30 32 36 26 32
-31 -3 -39 -2 -49 6 -38 8 12 11 8 12 -20 1 -26 3 -29 6 -11 4 19 7 21 15 10
7 -10 8 -8 3 9 -5 18 -2 22 15 22 12 0 31 10 41 23 17 19 19 19 11 2 -5 -11
-14 -33 -19 -50 -4 -16 -12 -28 -17 -27 -5 2 -13 -4 -19 -13 -7 -12 -4 -22 8
-34 16 -15 17 -15 13 5 -5 19 -3 20 17 10 20 -9 21 -14 13 -39 -14 -38 -5 -43
31 -17 31 21 31 21 31 1 0 -15 -5 -19 -20 -16 -11 2 -18 0 -15 -5 3 -4 -1 -11
-7 -14 -9 -3 -8 -8 5 -16 9 -6 17 -20 17 -32 0 -19 2 -20 18 -6 27 23 46 33
38 19 -4 -6 -2 -18 4 -26 10 -12 7 -17 -14 -25 -14 -5 -26 -14 -26 -20 0 -14
11 -12 34 5 27 21 35 19 28 -7 -4 -16 -2 -20 10 -16 10 4 15 0 15 -10 0 -47
12 -55 41 -25 16 16 17 15 20 -10 2 -15 12 -32 23 -37 15 -9 17 -15 9 -30 -9
-16 -8 -19 7 -14 14 4 13 1 -5 -14 -22 -20 -22 -21 -2 -27 12 -4 17 -11 13
-18 -4 -7 1 -6 11 2 10 9 20 11 24 5 4 -5 14 -9 22 -9 8 0 14 -6 12 -13 -1 -6
4 -12 12 -12 8 0 17 -7 20 -16 6 -15 4 -15 -11 -3 -17 13 -17 13 0 -7 9 -11
14 -24 10 -27 -3 -4 6 -7 20 -7 20 0 27 -5 27 -19 0 -11 -4 -23 -10 -26 -21
-13 -9 -25 30 -31 22 -4 43 -11 47 -17 3 -6 1 -7 -5 -3 -7 4 -22 0 -34 -8 -12
-9 -18 -16 -12 -16 5 0 15 5 20 10 14 14 41 3 46 -18 7 -24 115 -29 156 -8 24
13 31 13 35 2 7 -17 112 -4 135 17 36 31 85 44 127 33 38 -10 95 -56 95 -76 0
-6 9 -10 19 -10 11 0 30 -15 42 -32 29 -42 37 -47 61 -40 17 4 19 1 13 -16 -5
-17 -1 -24 22 -34 36 -16 56 -36 71 -70 8 -21 19 -28 38 -28 26 0 26 -1 11
-18 -24 -26 -21 -32 12 -32 24 0 28 -3 24 -20 -4 -16 -2 -19 11 -14 12 5 16 0
16 -20 0 -19 5 -26 20 -26 20 0 26 -11 14 -23 -4 -3 -8 -23 -9 -42 -2 -34 0
-36 21 -31 33 9 30 -8 -6 -47 -16 -18 -30 -39 -30 -47 0 -8 -7 -27 -14 -42
-13 -25 -13 -28 2 -28 13 -1 10 -6 -11 -24 -21 -17 -29 -33 -31 -60 -1 -36 0
-37 26 -34 29 5 28 3 -5 -45 -10 -16 -18 -29 -16 -31 2 -1 15 -8 29 -14 25
-12 25 -12 -5 -8 -16 3 -24 3 -17 0 17 -8 15 -24 -4 -24 -8 0 -13 -4 -9 -9 3
-5 -3 -12 -12 -14 -11 -3 -8 -5 10 -6 30 -1 35 -12 13 -31 -8 -6 -12 -18 -9
-26 3 -8 -1 -14 -8 -15 -8 -1 -3 -4 11 -9 24 -7 23 -7 -12 -15 -42 -8 -49 -20
-18 -30 11 -4 18 -11 15 -16 -4 -5 0 -9 7 -9 8 0 14 -9 15 -21 2 -16 -1 -18
-11 -9 -17 13 -97 9 -92 -5 2 -5 17 -9 35 -7 27 2 30 -1 27 -20 -2 -13 1 -29
6 -35 8 -10 5 -13 -11 -13 -11 0 -21 -4 -21 -10 0 -5 9 -10 19 -10 10 0 22 -7
25 -16 3 -9 13 -14 21 -10 8 3 17 1 20 -4 4 -6 1 -10 -5 -10 -7 0 -9 -7 -6
-16 3 -9 2 -12 -5 -9 -5 4 -17 4 -27 0 -14 -5 -14 -7 -2 -15 13 -8 12 -12 -5
-25 -20 -15 -20 -15 0 -8 18 6 19 5 5 -12 -14 -17 -13 -18 4 -12 15 6 17 4 13
-13 -3 -12 0 -20 7 -20 7 0 21 -7 32 -15 17 -13 16 -14 -21 -11 -55 5 -72 -10
-41 -35 13 -11 31 -19 40 -19 9 0 16 -4 16 -10 0 -6 -9 -6 -26 0 -39 15 -64
13 -58 -5 5 -12 0 -14 -24 -9 -19 4 -32 1 -37 -7 -5 -8 -4 -10 3 -5 7 4 12 2
12 -3 0 -6 9 -11 20 -11 11 0 20 -7 20 -15 0 -9 9 -15 23 -15 16 0 18 -3 9 -9
-18 -11 -15 -21 10 -48 27 -29 16 -28 -47 1 -36 17 -52 20 -61 12 -9 -8 -9
-13 0 -18 7 -5 4 -8 -7 -8 -10 0 -15 -4 -12 -10 3 -5 15 -10 26 -10 10 0 19
-4 19 -10 0 -5 6 -10 14 -10 8 0 17 -7 20 -16 5 -13 1 -15 -18 -12 -15 3 -23
1 -20 -6 3 -7 13 -12 22 -13 10 -1 34 -9 53 -17 34 -16 34 -16 4 -11 -16 3
-39 9 -50 12 -19 5 -19 5 -2 -14 9 -11 17 -26 17 -34 0 -12 2 -11 10 1 5 8 20
15 34 15 14 1 22 -3 20 -7 -3 -4 -1 -8 3 -8 5 0 18 -7 29 -15 13 -10 4 -9 -28
5 -46 19 -60 16 -37 -7 13 -13 3 -36 -12 -28 -5 4 -9 1 -9 -5 0 -6 -4 -9 -10
-5 -5 3 -21 3 -35 -1 -20 -5 -24 -11 -19 -26 4 -14 2 -18 -5 -13 -7 3 -25 11
-42 15 -26 8 -29 7 -19 -5 6 -8 9 -19 5 -25 -3 -5 1 -13 9 -16 9 -3 13 -10 10
-15 -3 -5 2 -9 11 -9 9 0 13 -4 10 -10 -4 -6 6 -10 22 -11 24 0 25 -2 8 -8
-19 -7 -19 -8 0 -18 10 -6 19 -19 20 -30 1 -15 -4 -18 -32 -15 -21 3 -31 8
-26 16 4 7 1 6 -7 -1 -11 -10 -10 -16 6 -34 10 -13 15 -20 9 -17 -5 3 -18 -3
-28 -12 -18 -17 -17 -18 12 -25 36 -8 58 -30 40 -41 -8 -5 -9 -3 -4 6 6 10 3
12 -13 8 -12 -4 -22 -2 -22 3 0 5 -5 9 -11 9 -5 0 -7 -4 -4 -10 6 -9 -8 -14
-28 -11 -5 1 -5 -3 -2 -9 4 -6 12 -9 18 -7 7 2 21 -3 31 -12 11 -9 16 -10 12
-4 -5 9 -2 11 8 7 9 -3 14 -10 11 -14 -3 -5 -1 -11 5 -15 18 -11 10 -23 -12
-17 -14 3 -19 1 -14 -6 4 -7 -3 -8 -24 -2 -18 5 -30 5 -30 -1 0 -5 -10 -9 -22
-8 -13 0 -18 3 -11 5 13 6 6 34 -8 34 -4 0 -13 -9 -19 -20 -9 -17 -7 -22 12
-30 22 -10 22 -10 -4 -7 -37 5 -25 -22 13 -30 16 -3 32 -9 34 -14 5 -7 -30 1
-65 15 -12 5 -15 -2 -15 -31 0 -21 3 -43 7 -49 4 -6 -3 -16 -18 -23 -19 -8
-25 -17 -21 -32 4 -16 3 -18 -8 -9 -8 7 -16 7 -19 2 -3 -6 1 -12 9 -16 24 -9
19 -39 -5 -33 -11 3 -18 1 -14 -4 3 -5 10 -9 16 -9 6 0 21 -8 32 -18 l21 -17
-20 24 -20 25 25 -17 c13 -9 36 -17 50 -18 15 -1 8 -4 -19 -10 -24 -5 -48 -6
-52 -3 -5 3 -9 0 -9 -5 0 -6 5 -11 12 -11 6 0 8 -3 4 -7 -4 -4 -16 3 -28 17
-11 14 -18 18 -15 9 4 -12 0 -15 -19 -11 -13 2 -24 9 -24 15 0 6 -3 7 -7 4 -3
-4 -12 -2 -20 5 -11 8 -12 7 -7 -6 4 -9 3 -16 -2 -15 -21 4 -24 -2 -10 -17 22
-21 20 -33 -4 -27 -11 3 -17 9 -14 14 3 5 -1 9 -9 9 -9 0 -14 -9 -13 -24 0
-13 3 -23 6 -22 3 2 25 -18 50 -43 27 -27 35 -39 20 -30 -14 8 -41 16 -60 17
-19 2 -37 8 -41 14 -10 16 -31 -2 -26 -23 4 -15 2 -17 -11 -10 -25 12 -40 3
-36 -22 4 -21 4 -21 -5 -2 -4 11 -7 22 -5 25 1 3 -6 6 -17 6 -24 0 -24 -7 1
-36 16 -18 17 -25 8 -32 -7 -4 -20 -5 -30 -2 -9 2 -20 -1 -24 -7 -5 -9 -2 -10
9 -6 10 4 20 0 26 -11 10 -16 10 -16 11 1 0 11 4 15 12 11 6 -4 16 0 22 9 10
13 15 12 36 -11 14 -14 19 -22 13 -18 -7 4 -13 2 -13 -3 0 -6 5 -11 10 -11 6
0 10 -5 10 -11 0 -6 -5 -7 -12 -2 -7 4 -22 8 -33 9 -11 0 -35 4 -52 8 -27 6
-32 5 -27 -7 3 -10 -2 -14 -18 -13 -13 1 -26 -2 -29 -6 -3 -5 -14 2 -25 14
-16 19 -16 20 -1 9 15 -12 17 -12 11 3 -3 9 -11 16 -18 17 -6 0 -19 2 -28 4
-10 2 -18 -2 -19 -8 0 -7 -2 -22 -5 -34 -5 -27 41 -55 83 -51 23 3 28 -2 34
-30 5 -25 3 -32 -8 -32 -9 0 -13 6 -10 14 9 22 -77 60 -103 46 -11 -6 -20 -7
-19 -3 3 20 -2 34 -11 28 -6 -3 -10 -1 -10 6 0 7 -2 10 -6 7 -3 -3 -21 -2 -40
2 -18 4 -34 4 -34 0 0 -10 30 -21 40 -15 10 6 22 -24 14 -37 -4 -6 -10 -6 -17
1 -6 6 -22 11 -36 12 -24 0 -24 1 -6 9 17 7 14 9 -13 9 -22 1 -31 5 -26 13 5
7 3 8 -5 4 -8 -6 0 -19 28 -42 22 -19 45 -50 52 -69 7 -18 23 -39 36 -46 13
-7 21 -14 18 -17 -2 -3 -11 0 -18 7 -8 6 -22 9 -31 5 -12 -5 -13 -10 -5 -25 7
-14 6 -19 -2 -19 -8 0 -6 -6 4 -18 9 -10 13 -23 8 -30 -8 -14 -38 45 -44 87
-2 14 -9 27 -15 29 -7 2 -10 -13 -7 -45 3 -38 2 -44 -7 -29 -9 17 -12 14 -25
-24 -18 -52 -43 -83 -43 -52 0 33 -11 56 -20 42 -5 -8 -10 -1 -15 19 -4 17
-10 29 -15 26 -5 -3 -18 4 -28 16 -16 16 -22 18 -28 7 -4 -7 -4 -10 0 -7 10 9
60 -42 61 -63 1 -10 -2 -18 -7 -18 -4 0 -8 6 -8 14 0 8 -5 18 -11 21 -5 4 -3
-10 5 -30 15 -35 15 -37 -1 -24 -9 8 -14 9 -10 3 4 -7 9 -29 11 -50 2 -22 2
-33 -1 -26 -2 6 -9 10 -14 7 -5 -4 -6 0 -3 8 3 8 1 18 -5 22 -10 6 -17 -42
-11 -70 1 -5 3 -15 4 -21 1 -7 8 -20 16 -30 8 -10 10 -15 3 -11 -6 4 -14 1
-16 -5 -4 -9 -6 -8 -6 2 -1 9 -6 21 -12 27 -6 6 -13 30 -14 54 -2 23 -11 49
-20 58 -15 15 -15 14 -6 -12 16 -41 14 -42 -14 -9 -14 17 -25 34 -25 38 0 5 5
2 10 -6 8 -13 10 -13 10 1 0 20 -18 35 -45 41 -11 2 -20 10 -20 18 0 8 -4 18
-10 22 -14 11 -35 10 -35 -2 0 -5 8 -7 18 -4 14 5 14 4 2 -4 -10 -8 -18 -8
-27 0 -9 7 -13 7 -13 0 0 -6 5 -14 11 -17 15 -10 31 -55 33 -92 1 -23 -2 -29
-11 -22 -11 10 -12 33 0 45 3 3 -1 17 -10 30 -19 30 -29 24 -14 -8 l12 -23
-17 22 c-19 26 -39 31 -30 7 3 -8 2 -12 -4 -9 -6 3 -10 -1 -10 -9 0 -9 6 -16
13 -17 9 0 9 -2 0 -5 -8 -4 -7 -11 5 -25 9 -11 17 -23 17 -27 0 -4 4 -13 9
-20 4 -7 3 -19 -4 -27 -8 -10 -7 -16 5 -23 9 -5 16 -12 16 -15 -1 -4 6 -23 14
-43 23 -55 17 -55 -11 -1 -22 43 -36 59 -33 40 3 -20 -3 -57 -8 -45 -2 6 -9
10 -14 7 -5 -4 -6 0 -4 7 9 23 -11 93 -25 90 -7 -2 -10 3 -7 11 3 9 -4 19 -19
26 -32 14 -34 14 -34 -4 0 -8 -5 -15 -11 -15 -8 0 -7 -6 2 -17 12 -14 12 -16
0 -8 -11 6 -13 4 -8 -8 3 -10 2 -17 -3 -17 -6 0 -10 10 -10 23 0 18 -2 19 -11
7 -9 -13 -10 -13 -6 2 3 9 -3 24 -13 33 -18 16 -20 16 -26 1 -3 -9 -11 -13
-16 -10 -6 4 -5 9 3 14 9 6 9 12 -4 24 -21 22 -30 20 -18 -3 6 -10 7 -22 3
-26 -4 -3 2 -14 13 -22 19 -15 19 -15 -7 -11 -15 3 -25 1 -22 -3 3 -5 -2 -9
-11 -9 -13 0 -14 -2 -3 -14 11 -12 13 -12 16 0 4 16 11 17 32 4 13 -8 12 -10
-3 -10 -10 0 -15 -5 -12 -10 4 -6 10 -8 14 -6 3 3 7 -4 7 -14 0 -10 -4 -16 -8
-14 -17 11 -7 -23 17 -58 14 -20 25 -43 25 -50 0 -7 -5 -5 -11 6 -9 15 -13 16
-21 5 -8 -11 -9 -10 -4 3 3 12 0 18 -9 18 -8 0 -15 4 -15 9 0 4 -10 8 -22 7
-17 -1 -22 4 -21 22 0 12 2 23 3 25 9 13 4 36 -10 45 -16 10 -18 8 -17 -8 1
-11 6 -20 12 -20 5 0 4 -4 -4 -9 -12 -8 -12 -12 -2 -25 12 -14 10 -16 -8 -16
-13 0 -19 -4 -16 -10 4 -6 10 -8 14 -6 12 8 7 -30 -6 -43 -12 -11 -14 -9 -13
14 1 12 -40 48 -47 42 -3 -4 -1 -7 5 -7 7 0 12 -4 12 -9 0 -5 -9 -7 -21 -4
-11 3 -18 11 -15 19 3 9 0 11 -11 7 -11 -4 -14 -2 -9 5 4 8 2 10 -8 6 -12 -5
-11 -9 5 -25 38 -38 20 -53 -20 -15 -45 41 -78 59 -87 45 -4 -7 -3 -9 3 -6 6
4 13 0 16 -8 4 -10 1 -12 -10 -8 -11 4 -14 2 -9 -5 4 -7 3 -12 -1 -12 -5 0
-14 9 -20 19 -10 15 -10 21 0 24 8 4 8 6 1 6 -6 1 -18 -7 -25 -16 -8 -9 -9
-14 -2 -10 7 4 14 -1 18 -13 4 -12 18 -26 32 -31 14 -5 23 -12 19 -16 -3 -3 1
-14 10 -24 9 -10 11 -20 6 -23 -6 -3 -35 19 -66 49 -30 30 -61 55 -68 55 -7 0
1 -9 18 -19 17 -10 34 -29 37 -41 4 -16 3 -20 -5 -12 -6 6 -17 8 -26 5 -10 -4
-13 -2 -8 5 3 6 1 14 -5 17 -16 11 -22 -1 -10 -23 8 -16 7 -21 -4 -26 -8 -3
-15 -1 -15 5 0 6 -12 29 -28 52 -15 23 -27 48 -27 55 0 6 -3 11 -6 10 -10 -5
-39 24 -33 33 3 5 -2 6 -10 3 -9 -3 -16 -1 -16 5 0 6 -5 11 -11 11 -5 0 -7 -5
-3 -12 5 -8 2 -9 -9 -5 -10 4 -24 10 -34 14 -12 5 -14 3 -8 -8 8 -12 6 -12 -9
0 -15 13 -19 13 -27 0 -6 -10 -9 -11 -9 -1 0 8 -5 10 -12 6 -8 -5 -9 -1 -5 12
7 18 6 18 -8 -1 -17 -21 -18 -20 -46 28 -8 15 -13 16 -25 6 -8 -6 -14 -19 -14
-28 0 -14 -2 -14 -11 -1 -9 12 -10 11 -6 -7 3 -13 1 -25 -3 -28 -4 -3 -11 17
-15 45 -4 27 -11 50 -17 50 -5 0 -6 5 -3 10 4 6 10 8 15 5 5 -3 10 0 13 7 2 7
3 5 1 -6 -3 -17 16 -46 30 -46 3 0 6 9 6 19 0 31 21 36 41 10 16 -20 20 -22
28 -9 11 17 5 30 -14 30 -9 0 -12 6 -8 17 4 11 3 14 -5 9 -7 -4 -20 -2 -29 4
-15 9 -14 10 6 4 19 -5 23 -3 18 10 -4 9 -2 16 3 16 5 0 7 7 4 15 -8 19 10 19
26 0 16 -19 34 -19 26 0 -7 19 8 20 23 1 8 -10 9 -16 1 -19 -6 -3 -5 -4 2 -3
18 3 21 23 6 35 -7 7 -29 23 -48 37 -27 20 -36 22 -38 10 -5 -21 -86 -14 -90
8 -2 9 0 15 5 14 4 -1 19 4 33 12 14 8 31 15 38 16 31 5 44 15 38 29 -11 29 5
15 20 -17 l15 -33 -5 33 c-4 24 -2 32 7 29 6 -2 33 16 59 41 52 49 82 117 76
174 -3 29 -7 33 -35 36 -20 2 -40 13 -52 27 -16 22 -60 47 -85 49 -5 1 -11 8
-13 16 -4 12 -3 12 5 1 7 -10 11 -10 17 -1 4 7 0 19 -9 28 -12 12 -16 13 -16
3 0 -10 -3 -11 -14 -2 -11 9 -14 8 -12 -5 2 -27 -19 -27 -34 1 -7 14 -17 25
-22 25 -5 0 -4 -9 2 -20 13 -25 -5 -27 -19 -2 -10 16 -12 16 -25 0 -17 -23
-36 -23 -36 0 0 14 2 15 10 2 5 -8 10 -10 10 -5 0 24 -16 32 -46 26 -4 0 0 -9
7 -18 11 -13 8 -13 -13 2 -15 11 -29 28 -32 39 -3 10 -9 15 -16 11 -7 -4 -10
0 -8 11 2 12 -2 18 -11 16 -9 -2 -12 4 -8 18 3 11 1 18 -4 14 -5 -3 -9 -12 -9
-20 0 -9 -5 -12 -11 -8 -8 4 -9 -6 -5 -37 3 -24 3 -38 0 -31 -7 14 -34 16 -34
2 0 -5 5 -10 10 -10 6 0 10 -4 10 -10 0 -18 -15 -10 -35 19 -16 25 -21 27 -30
14 -19 -26 -53 -8 -49 25 2 15 1 21 -2 15 -3 -7 -10 -13 -15 -13 -6 0 -7 4 -4
10 3 5 1 18 -4 27 -8 14 -10 8 -9 -26 1 -33 6 -45 20 -49 10 -2 18 -8 18 -12
0 -5 -9 -6 -20 -3 -14 4 -20 0 -20 -13 0 -28 -8 -12 -14 31 -9 54 -46 78 -46
29 0 -14 -4 -23 -8 -20 -5 3 -15 -4 -22 -15 -17 -23 -32 -25 -23 -3 5 14 3 15
-15 5 -17 -9 -23 -8 -30 5 -6 11 -11 13 -16 5 -4 -6 -2 -11 4 -11 6 0 8 -5 5
-10 -3 -6 -15 -10 -25 -10 -14 0 -18 -5 -13 -17 4 -10 2 -14 -4 -10 -13 8 -43
-1 -43 -13 0 -5 10 -5 23 -2 21 5 21 5 5 -12 -10 -9 -22 -15 -28 -11 -13 8
-70 -23 -67 -37 1 -7 -8 -17 -19 -22 -27 -12 -45 -66 -31 -91 7 -13 6 -24 -2
-36 -16 -26 -14 -31 8 -24 13 4 21 0 25 -12 9 -30 60 -79 92 -90 16 -6 28 -16
27 -22 -2 -6 7 -10 18 -8 12 1 24 -5 26 -13 4 -13 3 -13 -6 0 -9 13 -11 13
-11 -1 0 -9 -9 -27 -20 -40 -16 -19 -19 -20 -13 -5 6 18 5 18 -19 2 -14 -9
-32 -14 -40 -11 -10 4 -17 -2 -21 -16 -8 -29 -4 -33 22 -20 17 10 20 9 15 -4
-4 -9 0 -15 9 -15 8 0 18 6 20 13 4 7 6 6 6 -5 1 -25 -10 -49 -20 -42 -5 3 -6
-2 -3 -10 3 -9 2 -16 -3 -16 -5 0 -9 -9 -9 -20 0 -20 15 -29 17 -10 1 6 2 13
3 18 3 17 86 104 86 90 0 -3 -13 -19 -30 -36 -34 -37 -41 -65 -8 -36 12 10 18
13 14 6 -4 -7 -2 -20 5 -28 10 -12 9 -13 -5 -8 -12 5 -15 2 -10 -10 5 -12 10
-13 25 -5 11 5 17 14 14 20 -4 5 1 9 9 9 18 0 21 -16 5 -26 -6 -3 -8 -16 -5
-29 4 -15 -2 -29 -18 -44 -12 -12 -33 -44 -46 -71 -13 -28 -25 -48 -27 -46 -3
2 5 23 17 46 26 51 34 105 20 128 -8 13 -9 11 -5 -13 3 -16 2 -24 -1 -17 -10
21 -26 13 -19 -9 5 -14 3 -19 -3 -15 -6 4 -15 -2 -21 -11 -6 -11 -11 -13 -11
-5 0 7 -4 10 -10 7 -6 -3 -10 -2 -10 4 0 6 -15 1 -34 -10 -29 -17 -34 -18 -40
-4 -3 8 -13 15 -22 15 -13 0 -14 3 -4 15 21 25 -2 17 -33 -12 l-30 -28 18 28
c18 28 9 37 -14 14 -11 -10 -13 -9 -8 6 8 22 -1 22 -38 -3 -33 -22 -58 -27
-33 -7 8 6 18 20 21 30 6 15 4 16 -15 6 -18 -10 -20 -9 -15 5 9 22 -8 29 -35
15 -13 -6 -20 -8 -16 -4 11 12 -31 45 -48 38 -10 -4 -12 0 -8 10 3 9 19 19 35
22 16 4 31 11 34 16 8 11 -17 12 -31 1 -16 -14 -66 -33 -59 -22 3 5 4 10 1 10
-2 0 -13 3 -23 6 -15 5 -15 4 -3 -5 11 -8 8 -9 -15 -6 -42 5 -43 6 -17 13 29
9 25 27 -5 27 -13 -1 -23 5 -23 13 0 9 -7 13 -20 9 -11 -3 -18 -1 -14 4 3 5 1
9 -5 9 -5 0 -13 -5 -16 -10 -4 -6 -12 -7 -18 -3 -7 4 0 12 18 19 17 7 23 13
15 14 -13 0 -13 1 0 10 8 5 12 12 9 15 -10 9 -55 -12 -79 -37 -14 -14 -24 -19
-27 -12 -7 19 -40 7 -123 -45 -14 -9 -41 -21 -60 -28 l-35 -12 25 19 c13 10
27 18 30 18 15 -3 58 26 53 36 -3 6 -2 8 2 4 5 -5 27 3 51 17 23 14 51 25 61
25 10 0 25 5 33 11 12 8 9 10 -12 6 -15 -2 -29 0 -30 5 -2 5 -11 6 -21 3 -9
-4 -15 -10 -12 -15 2 -4 -12 -6 -33 -4 -35 2 -36 2 -13 -10 23 -13 23 -13 2
-19 -11 -3 -18 -1 -15 4 10 17 -24 20 -60 5 -20 -8 -35 -12 -32 -7 3 4 36 20
75 36 l70 28 -22 19 c-12 11 -16 17 -9 13 6 -3 12 -1 12 5 0 12 -13 10 -75 -6
l-20 -6 20 15 c11 8 43 18 70 22 38 6 45 9 27 14 -13 3 -23 10 -23 16 1 12
-63 14 -103 3 -17 -4 -36 -3 -45 3 -14 9 -14 10 1 5 10 -3 20 -1 23 3 2 5 22
17 42 27 37 18 38 19 11 22 -15 2 -50 -4 -79 -12 -29 -9 -55 -14 -57 -11 -3 3
0 5 7 5 7 0 9 5 6 10 -3 6 -1 10 6 10 7 0 9 3 6 6 -4 4 -18 -1 -32 -10 -14 -9
-25 -12 -25 -6 0 5 5 10 12 10 9 0 9 3 0 12 -9 9 -16 8 -30 -5 -10 -9 -23 -17
-28 -17 -5 0 -2 4 6 10 8 5 11 12 7 16 -8 9 -77 -56 -77 -73 0 -7 10 -13 23
-14 12 0 31 -4 42 -9 15 -6 10 -8 -20 -7 -29 2 -40 -2 -40 -13 0 -8 -7 -15
-15 -15 -8 0 -14 -8 -14 -18 1 -9 -2 -15 -6 -12 -4 3 -13 -1 -19 -9 -7 -8 -21
-12 -32 -9 -22 6 -21 25 2 31 11 3 11 2 1 -6 -11 -8 -11 -10 1 -15 10 -4 17 2
20 15 5 17 2 20 -24 16 -16 -3 -29 -1 -29 4 0 4 4 8 9 8 6 0 24 15 42 33 18
17 27 24 19 15 -7 -10 -8 -18 -2 -18 5 0 17 11 26 24 18 28 4 40 -26 24 -11
-5 -18 -5 -18 1 0 6 8 15 18 20 16 10 16 10 0 11 -9 0 -20 -5 -23 -11 -5 -7
-14 -4 -26 7 -11 9 -22 14 -26 10 -4 -4 -1 -12 7 -17 11 -8 8 -9 -10 -3 -14 3
-22 3 -18 -1 10 -11 -31 -39 -57 -40 -30 -1 -65 -15 -65 -26 0 -6 -5 -7 -11
-3 -7 4 1 14 20 26 17 11 28 24 25 30 -4 6 -10 6 -17 -1 -6 -6 -15 -11 -20
-11 -5 0 1 9 14 21 13 11 19 18 12 15 -6 -4 -14 -2 -17 3 -6 8 51 41 72 41 6
0 12 4 14 8 2 4 28 18 58 29 48 19 51 22 25 22 -36 1 -96 -19 -120 -39 -15
-12 -19 -12 -23 -2 -3 10 -7 10 -18 1 -7 -6 -21 -9 -30 -5 -19 7 -44 -6 -97
-52 l-42 -36 34 37 c22 23 30 37 20 37 -12 0 -12 2 1 10 12 8 12 10 1 10 -29
0 0 13 36 16 64 5 66 6 49 23 -12 11 -20 12 -38 4 -39 -19 -58 -23 -58 -13 0
6 -7 10 -15 10 -8 0 -15 -5 -15 -10 0 -6 -12 -8 -27 -5 -27 5 -27 5 -5 -5 13
-5 28 -8 32 -5 5 3 11 1 15 -5 4 -6 -6 -10 -24 -10 -16 0 -37 -7 -45 -16 -9
-8 -16 -12 -16 -7 -1 4 -9 -3 -20 -16 -11 -12 -17 -28 -13 -35 3 -6 3 -8 -2
-4 -9 8 -50 -11 -41 -19 7 -7 -24 -32 -39 -32 -5 0 -2 4 7 9 9 6 19 24 23 40
4 17 12 30 18 30 7 0 3 7 -7 15 -14 11 -16 15 -5 15 12 0 12 2 0 9 -10 6 -4
12 21 20 48 16 47 44 0 35 -25 -5 -33 -4 -28 5 4 6 11 9 15 7 4 -3 8 1 8 9 0
8 -4 15 -9 15 -5 0 -6 5 -3 10 3 5 13 10 21 10 8 0 12 -4 9 -10 -4 -6 1 -7 11
-3 11 4 13 8 6 11 -7 2 -10 8 -7 13 7 10 -24 1 -42 -13 -6 -5 -9 -16 -6 -24 4
-10 -4 -14 -30 -14 -20 0 -39 -5 -42 -10 -4 -6 -16 -8 -28 -5 -20 5 -20 5 -4
-6 11 -6 32 -9 48 -5 15 3 31 1 34 -3 2 -5 -10 -12 -28 -15 -48 -9 -141 -6
-148 5 -3 6 -21 3 -45 -7 -35 -15 -55 -18 -96 -15 -7 1 0 8 16 16 16 9 35 14
43 11 16 -6 73 13 73 24 0 5 -9 8 -19 7 -11 0 -18 -4 -16 -7 2 -3 -10 -5 -26
-5 -16 0 -29 3 -29 8 0 4 9 7 21 7 11 0 17 5 14 10 -3 6 4 14 17 19 13 5 29
16 36 24 10 12 8 13 -15 9 -15 -3 -36 -16 -46 -29 -11 -13 -22 -22 -25 -18 -3
3 3 12 14 21 18 14 17 15 -14 9 -33 -7 -33 -7 -16 14 13 15 20 17 26 8 5 -9
11 -7 21 7 8 11 19 16 24 13 6 -4 13 0 17 8 3 8 1 17 -5 21 -14 8 -81 -5 -75
-15 3 -4 -6 -6 -19 -3 -18 3 -25 0 -26 -12 -1 -9 -3 -20 -4 -26 -1 -5 -3 -15
-4 -21 -1 -8 -5 -9 -14 0 -8 6 -16 10 -18 8 -2 -1 4 4 13 12 10 7 18 19 18 26
0 21 61 80 79 77 14 -2 14 -2 1 7 -13 10 -13 11 0 12 8 1 23 1 32 0 10 -1 18
2 18 7 0 9 -20 8 -70 -2 -24 -5 -74 -30 -82 -41 -4 -5 -8 -6 -8 -2 0 4 -8 3
-18 -2 -14 -8 -19 -6 -19 5 0 7 3 14 6 15 3 0 16 2 29 3 39 4 47 23 10 22 -18
0 -44 3 -58 7 l-25 8 25 -15 c29 -18 23 -20 -15 -6 -17 7 -24 7 -20 0 3 -6 -1
-10 -9 -10 -12 0 -14 5 -6 26 13 32 13 43 0 24 -7 -11 -10 -12 -10 -2 0 8 9
16 21 19 15 4 17 8 8 14 -8 5 -21 2 -32 -8 -17 -16 -17 -16 -11 1 6 16 4 17
-14 7 -26 -14 -37 -31 -20 -31 7 0 0 -11 -16 -25 -16 -14 -32 -21 -35 -16 -3
5 -15 11 -26 14 -18 4 -17 5 3 6 13 0 20 5 17 11 -3 5 0 7 8 4 8 -3 20 2 27
11 7 8 9 15 4 15 -5 0 3 8 16 17 14 10 30 16 35 15 6 -2 2 4 -7 14 -12 12 -21
14 -30 7 -20 -15 -50 -24 -43 -13 3 6 2 10 -4 10 -5 0 -13 -4 -16 -10 -10 -16
-25 -12 -25 6 0 9 6 14 13 11 8 -3 20 -1 28 3 7 5 18 5 24 0 7 -6 11 -2 11 13
0 19 -6 22 -49 24 -33 2 -67 -5 -99 -19 -27 -11 -51 -19 -54 -16 -2 3 19 14
48 26 29 11 45 21 34 21 -16 1 -14 5 10 23 16 12 31 25 34 28 3 3 16 14 30 23
l24 17 -24 0 c-19 0 -22 2 -10 9 8 6 17 8 21 5 4 -2 10 0 14 6 3 5 0 10 -7 10
-9 0 -9 3 2 10 13 8 13 10 -2 10 -9 0 -24 7 -32 16 -9 8 -16 11 -16 6 0 -5
-13 -9 -29 -8 -16 1 -29 6 -28 11 1 6 -6 9 -15 7 -11 -2 -18 3 -18 13 0 17 25
21 35 5 8 -13 25 -13 25 0 0 6 -7 10 -16 10 -14 0 -14 3 -4 15 7 8 21 15 31
15 10 0 21 4 24 10 3 6 -5 10 -19 10 -13 0 -26 -5 -28 -11 -2 -6 -26 -13 -53
-16 -37 -3 -46 -2 -34 6 9 6 25 12 35 14 27 5 112 46 96 47 -8 0 -10 5 -6 12
4 7 -2 5 -13 -5 -23 -20 -50 -22 -55 -5 -4 10 -10 10 -32 0 -25 -11 -27 -11
-21 8 4 13 2 20 -7 21 -7 0 -3 4 10 9 12 5 22 14 22 19 0 11 -38 3 -46 -10 -3
-5 -13 -9 -22 -9 -9 0 5 11 31 24 39 19 44 24 27 29 -11 3 -20 2 -20 -2 0 -4
-12 -8 -27 -9 l-28 -2 35 32 35 31 -45 -6 c-42 -5 -44 -5 -25 10 13 10 14 14
4 10 -9 -3 -22 -1 -30 4 -11 7 -9 9 7 9 11 0 31 11 44 25 26 27 24 28 -38 16
-36 -7 -41 -6 -30 6 6 8 19 12 29 10 9 -3 30 4 46 15 15 11 20 17 11 14 -10
-3 -26 -9 -35 -12 -10 -3 -3 3 15 15 41 27 42 47 1 26 -17 -9 -38 -14 -47 -12
-13 4 -12 5 4 6 12 0 27 8 34 16 11 13 8 15 -14 15 -14 0 -26 4 -26 10 0 5 13
7 28 5 16 -2 35 1 43 6 11 7 11 9 1 9 -7 0 -11 4 -7 9 3 6 -3 15 -12 21 -15
10 -14 11 10 7 21 -3 27 0 27 14 0 11 -4 19 -10 19 -5 0 -10 -4 -10 -9 0 -4
-13 -8 -30 -7 -20 1 -32 8 -39 24 -8 17 -7 22 4 22 18 0 19 12 3 28 -9 9 -8
12 8 12 11 0 25 5 32 12 7 7 12 8 12 4 0 -5 7 -3 15 4 8 7 15 18 15 24 0 6 -5
4 -10 -4 -8 -13 -10 -13 -10 2 0 10 10 20 23 23 31 8 30 34 0 41 -17 5 -21 10
-13 19 14 17 1 26 -22 14 -11 -6 -22 -8 -26 -5 -3 3 0 6 6 6 7 0 9 7 5 17 -5
12 -2 15 10 10 11 -4 14 -2 10 9 -3 9 1 14 13 14 16 0 17 2 4 10 -8 5 -24 8
-35 6 -11 -2 -15 -1 -9 1 12 4 25 33 29 65 1 9 5 23 8 32 5 12 0 16 -18 16
-14 0 -25 5 -25 10 0 6 8 10 18 10 9 0 24 5 32 11 12 9 11 10 -7 6 -13 -3 -24
1 -27 9 -3 8 -2 13 2 13 19 -3 55 3 45 8 -7 2 -13 9 -13 15 0 6 7 7 16 4 9 -3
20 -4 25 0 11 6 -14 34 -33 35 -7 1 -2 5 12 10 21 7 18 8 -17 6 -44 -3 -46 0
-11 17 12 6 23 16 25 22 5 15 -49 34 -76 27 -27 -7 -27 4 0 26 12 10 22 29 22
44 0 15 3 24 8 21 9 -5 13 16 10 44 -1 6 5 12 14 12 8 0 15 5 15 10 0 6 -9 10
-20 10 -27 0 -25 14 2 28 16 7 18 11 7 11 -27 2 -18 31 10 31 l26 1 -30 14
c-16 7 -24 14 -17 14 7 1 20 8 28 16 13 12 12 15 -6 25 -24 13 -18 30 11 30
10 0 19 7 19 15 0 9 -9 15 -22 15 -17 0 -19 3 -9 9 11 7 10 11 -5 20 -17 10
-17 10 5 11 35 0 89 21 95 37 4 9 -6 13 -37 13 -32 0 -45 5 -55 21 -11 17 -10
22 10 38 12 10 28 16 35 14 18 -7 83 6 83 16 0 4 -29 8 -65 7 -53 -1 -67 2
-79 19 -13 18 -13 21 0 25 9 3 14 8 13 10 -1 3 0 15 3 28 7 26 34 29 60 5 18
-16 22 -16 69 0 55 20 98 15 79 -8 -15 -18 -7 -29 30 -45 25 -10 28 -15 19
-32 -8 -14 -18 -19 -35 -15 -13 2 -24 0 -24 -4 0 -5 19 -9 43 -9 23 0 37 -4
31 -8 -18 -12 -23 -50 -8 -56 8 -3 14 -1 14 4 0 6 12 10 28 10 42 0 102 12
102 20 0 4 -12 5 -27 3 -28 -5 -28 -5 5 16 18 12 38 21 46 21 7 0 12 10 11 23
-2 12 -8 21 -14 19 -6 -1 -11 2 -11 8 0 12 0 12 38 -1 24 -8 37 -7 64 7 18 9
27 19 20 21 -6 3 -10 9 -6 14 3 5 13 5 25 -1 25 -14 25 2 -1 20 -11 8 -20 20
-20 27 0 7 -10 10 -24 7 -20 -3 -24 0 -23 16 1 21 12 26 22 10 4 -6 11 -5 19
3 12 10 11 13 -3 19 -10 4 -3 7 19 7 45 2 80 11 80 22 0 5 -10 9 -22 9 -13 0
-30 5 -38 11 -12 9 -11 10 8 6 12 -3 22 -1 22 4 0 5 10 9 22 9 12 0 18 3 15 7
-4 3 -2 12 4 20 9 10 6 13 -15 13 -24 0 -27 4 -25 28 0 4 7 6 15 4 8 -2 14 2
14 8 0 5 -4 10 -10 10 -5 0 -10 4 -10 10 0 5 21 8 47 7 37 -1 48 1 48 13 0 11
9 14 33 12 32 -3 38 5 32 47 -1 10 4 11 17 6 39 -16 56 -18 49 -7 -4 7 -14 12
-23 12 -9 0 -13 3 -9 7 3 4 -6 12 -21 19 -27 12 -26 13 17 8 36 -3 40 -2 23 5
-26 12 -32 34 -6 24 11 -4 14 -3 9 5 -5 9 7 12 41 13 49 1 47 3 -21 14 -28 5
-36 9 -26 15 9 5 17 5 21 -2 4 -7 9 -7 13 0 3 6 15 8 26 5 11 -3 20 0 20 6 0
6 -6 11 -12 11 -10 0 -9 3 1 9 10 7 9 11 -8 23 -29 21 -14 30 20 13 36 -19 41
-19 70 6 22 19 22 21 4 17 -12 -2 -19 2 -17 10 1 6 -6 12 -15 12 -12 0 -14 3
-6 11 8 8 17 8 33 -1 12 -6 24 -9 28 -6 3 3 0 6 -7 6 -7 0 -10 4 -7 9 3 4 17
6 31 3 28 -5 33 9 9 28 -19 17 -41 56 -25 46 7 -5 11 2 11 19 0 23 2 25 21 14
16 -8 23 -8 29 1 5 8 9 7 14 -5 3 -9 10 -13 16 -10 5 3 10 1 10 -4 0 -6 7 -11
15 -11 17 0 19 12 5 26 -16 16 -30 73 -19 79 5 4 9 1 9 -4 0 -6 5 -11 11 -11
8 0 8 5 -1 15 -7 8 -10 21 -7 30 4 8 2 17 -3 20 -5 3 -7 12 -3 20 3 10 -1 15
-13 16 -11 0 -14 3 -6 6 7 2 27 -5 45 -16 l32 -22 -30 6 c-27 6 -28 5 -10 -6
11 -7 23 -17 27 -23 4 -6 13 3 20 21 l14 31 23 -24 c13 -14 26 -22 29 -19 3 2
12 -1 20 -8 13 -10 14 -8 9 15 -5 20 -3 29 10 36 16 9 16 11 0 27 -21 21 -21
26 -1 18 14 -5 16 -2 11 19 -4 15 -10 34 -14 44 -5 13 -3 15 7 9 10 -6 12 -1
8 21 -3 16 -8 36 -12 45 -5 10 -2 16 9 16 9 0 16 -10 16 -26 1 -17 4 -12 8 14
3 22 2 43 -3 46 -8 6 -9 51 -4 174 1 17 -1 57 -5 90 l-5 60 51 2 c29 2 62 3
73 3 12 0 27 7 34 15 7 8 21 15 31 15 11 0 19 6 19 14 0 9 8 12 25 8 14 -2 25
0 25 6 0 6 16 9 39 7 32 -3 40 0 51 21 8 15 22 24 37 24 13 0 23 3 23 8 0 4
32 8 71 9 41 1 77 7 86 15 9 7 24 12 35 10 11 -2 18 3 18 12 0 8 8 14 18 14 9
0 29 3 45 7 23 6 27 4 27 -13 0 -18 3 -19 25 -9 14 7 25 17 25 22 0 19 48 32
98 27 40 -3 53 -1 70 16 15 15 30 19 62 16 24 -2 49 1 57 7 9 9 17 8 27 0 11
-9 15 -9 18 0 3 9 9 9 25 1 12 -7 31 -8 49 -3 16 4 35 6 42 4 6 -3 12 0 12 5
0 9 17 17 44 21 4 0 6 -5 3 -13z m1296 -256 c3 -11 1 -23 -4 -26 -5 -3 -9 6
-9 20 0 31 6 34 13 6z m137 -520 c0 -5 -4 -10 -10 -10 -5 0 -10 5 -10 10 0 6
5 10 10 10 6 0 10 -4 10 -10z m-2899 -97 c13 -16 12 -17 -3 -4 -10 7 -18 15
-18 17 0 8 8 3 21 -13z m-161 -201 c3 -3 -8 -2 -25 2 -16 4 -34 12 -40 17 -5
5 6 4 25 -2 19 -7 37 -14 40 -17z m-25 -20 c-3 -3 -11 0 -18 7 -9 10 -8 11 6
5 10 -3 15 -9 12 -12z m3476 -79 c13 -17 13 -17 -6 -3 -11 8 -22 16 -24 17 -2
2 0 3 6 3 6 0 17 -8 24 -17z m-4271 -483 c0 -5 -7 -10 -16 -10 -8 0 -12 5 -9
10 3 6 10 10 16 10 5 0 9 -4 9 -10z m-123 -236 c-3 -3 -12 -4 -19 -1 -8 3 -5
6 6 6 11 1 17 -2 13 -5z m-40 -840 c-3 -3 -12 -4 -19 -1 -8 3 -5 6 6 6 11 1
17 -2 13 -5z m5350 -364 c14 -11 21 -20 16 -20 -6 0 -20 9 -33 20 -13 11 -20
20 -16 20 4 0 19 -9 33 -20z m-122 -210 c3 -5 1 -10 -6 -10 -7 0 -5 -9 7 -22
l19 -23 -22 19 c-13 10 -20 22 -18 26 3 5 -1 11 -7 13 -8 4 -7 6 4 6 9 1 20
-3 23 -9z m-5199 -103 c4 -4 -5 -7 -19 -7 -15 0 -27 4 -27 10 0 11 35 8 46 -3z
m39 -37 c3 -5 -1 -10 -10 -10 -9 0 -13 5 -10 10 3 6 8 10 10 10 2 0 7 -4 10
-10z m5155 -50 c0 -5 -2 -10 -4 -10 -3 0 -8 5 -11 10 -3 6 -1 10 4 10 6 0 11
-4 11 -10z m-5100 -94 c0 -2 -7 -6 -15 -10 -8 -3 -15 -1 -15 4 0 6 7 10 15 10
8 0 15 -2 15 -4z m-25 -36 c-3 -5 -10 -10 -16 -10 -5 0 -9 5 -9 10 0 6 7 10
16 10 8 0 12 -4 9 -10z m4955 -92 c0 -6 -6 -5 -15 2 -8 7 -15 14 -15 16 0 2 7
1 15 -2 8 -4 15 -11 15 -16z m-4884 -3 c-11 -8 -27 -15 -35 -15 -10 1 -7 6 9
15 33 19 50 18 26 0z m1 -78 c0 -7 -9 -14 -20 -14 -19 -2 -19 -2 -1 12 11 8
19 15 20 15 0 0 1 -6 1 -13z m4798 -27 c3 -6 -1 -7 -9 -4 -18 7 -21 14 -7 14
6 0 13 -4 16 -10z m-2070 -10 c3 -5 1 -10 -4 -10 -6 0 -11 5 -11 10 0 6 2 10
4 10 3 0 8 -4 11 -10z m2128 -8 c14 -15 14 -19 3 -19 -8 0 -17 9 -19 19 -3 10
-4 18 -3 18 2 0 10 -8 19 -18z m-200 -65 c12 -19 13 -24 2 -24 -8 0 -12 4 -9
8 2 4 0 10 -6 14 -9 6 -14 25 -6 25 2 0 11 -10 19 -23z m-2448 -7 c-3 -5 -14
-10 -23 -10 -15 0 -15 2 -2 10 20 13 33 13 25 0z m29 -25 c-7 -16 -24 -21 -24
-6 0 8 7 13 27 20 1 1 0 -6 -3 -14z m841 -25 c3 -5 1 -10 -4 -10 -6 0 -11 5
-11 10 0 6 2 10 4 10 3 0 8 -4 11 -10z m-2572 -77 c-9 -23 -29 -43 -42 -43 -6
0 -30 -17 -53 -37 -24 -21 -34 -28 -24 -15 14 17 16 22 5 22 -9 0 -6 5 6 12
11 6 23 16 27 21 3 6 17 11 30 12 12 1 23 6 23 11 0 14 15 34 25 34 5 0 6 -8
3 -17z m99 -6 c-14 -6 -26 -7 -32 -1 -5 5 4 9 23 10 30 1 30 1 9 -9z m-47 -15
c-3 -3 -11 0 -18 7 -9 10 -8 11 6 5 10 -3 15 -9 12 -12z m205 -22 c0 -5 -5
-10 -11 -10 -5 0 -7 5 -4 10 3 6 8 10 11 10 2 0 4 -4 4 -10z m339 -40 c-14 -4
-39 -15 -55 -25 l-29 -18 30 26 c17 15 41 26 55 26 l25 -1 -26 -8z m3256 -8
c-3 -3 -11 0 -18 7 -9 10 -8 11 6 5 10 -3 15 -9 12 -12z m-1390 -2 c-3 -5 -16
-10 -28 -9 -20 1 -20 2 3 9 14 4 26 8 28 9 2 1 0 -3 -3 -9z m1429 -5 c-4 -8
-11 -12 -16 -9 -6 4 -5 10 3 15 19 12 19 11 13 -6z m-2915 -25 c-13 -8 -32
-23 -41 -32 -10 -10 -23 -18 -30 -18 -7 0 4 12 23 26 l34 26 -32 -7 c-18 -4
-33 -4 -33 -1 0 7 56 22 83 22 18 0 17 -2 -4 -16z m-488 -23 l-24 -22 19 27
c10 14 21 24 23 22 3 -3 -6 -15 -18 -27z m74 13 c-10 -11 -21 -18 -23 -15 -3
3 3 12 14 20 27 20 30 18 9 -5z m302 4 c-3 -3 -12 -4 -19 -1 -8 3 -5 6 6 6 11
1 17 -2 13 -5z m3000 -36 c-3 -8 -6 -5 -6 6 -1 11 2 17 5 13 3 -3 4 -12 1 -19z
m-3917 -1 c0 -2 -10 -12 -22 -23 l-23 -19 19 23 c18 21 26 27 26 19z m557 -22
c-11 -23 -16 -26 -33 -24 -4 0 -11 -5 -15 -13 -5 -7 -9 -8 -9 -2 0 5 7 19 16
30 15 19 16 19 10 -1 -5 -15 -1 -13 15 8 26 34 31 34 16 2z m-101 -3 c-3 -5
-17 -12 -31 -14 -13 -3 -22 -1 -19 3 3 5 14 9 25 9 10 0 19 5 19 12 0 6 3 9 6
5 3 -3 3 -10 0 -15z m484 3 c0 -2 -6 -5 -13 -8 -8 -3 -14 1 -14 8 0 7 6 11 14
8 7 -3 13 -6 13 -8z m145 -5 c3 -5 -1 -10 -10 -10 -9 0 -13 5 -10 10 3 6 8 10
10 10 2 0 7 -4 10 -10z m-805 -4 c0 -2 -7 -7 -16 -10 -8 -3 -12 -2 -9 4 6 10
25 14 25 6z m504 -13 c4 -10 4 -14 0 -11 -3 4 -13 0 -21 -8 -16 -16 -35 -15
-34 1 0 6 9 11 21 13 11 2 20 8 20 13 0 14 7 11 14 -8z m65 -6 c-14 -7 -32
-17 -40 -23 -19 -15 -49 -25 -49 -16 0 12 74 51 95 51 17 -1 16 -3 -6 -12z
m1035 4 c3 -5 -1 -11 -9 -14 -9 -4 -12 -1 -8 9 6 16 10 17 17 5z m72 -11 c8 0
14 -9 14 -20 0 -13 5 -18 15 -14 19 8 19 -3 1 -21 -12 -12 -16 -11 -30 4 -18
20 -22 36 -6 26 6 -3 10 -1 10 5 0 8 -9 10 -25 6 -19 -5 -25 -2 -25 10 0 11 5
14 16 10 9 -3 22 -6 30 -6z m-1266 -24 c0 -2 -7 -9 -15 -16 -13 -11 -14 -10
-9 4 5 14 24 23 24 12z m240 -16 c0 -5 -2 -10 -4 -10 -3 0 -8 5 -11 10 -3 6
-1 10 4 10 6 0 11 -4 11 -10z m1114 -15 c-4 -8 -8 -15 -10 -15 -2 0 -4 7 -4
15 0 8 4 15 10 15 5 0 7 -7 4 -15z m-1909 -5 c-3 -5 -12 -10 -18 -10 -7 0 -6
4 3 10 19 12 23 12 15 0z m1006 -23 c-13 -17 -4 -50 12 -40 5 3 7 1 3 -5 -3
-6 3 -12 16 -15 20 -4 19 -4 -5 -6 -19 -1 -26 -5 -21 -13 4 -7 3 -8 -5 -4 -6
4 -9 12 -6 17 4 5 -4 9 -16 9 -22 0 -22 0 -3 14 18 14 18 15 -3 13 -13 -1 -23
-4 -23 -7 0 -3 -15 -14 -32 -25 -33 -18 -33 -18 -18 1 28 36 100 88 109 78 2
-2 -1 -10 -8 -17z m1212 -51 c4 -10 1 -13 -9 -9 -15 6 -19 23 -5 23 5 0 11 -7
14 -14z m-276 -18 c-3 -8 -6 -5 -6 6 -1 11 2 17 5 13 3 -3 4 -12 1 -19z m-957
-11 c0 -2 -14 -16 -32 -33 -18 -16 -26 -21 -19 -11 7 9 10 17 5 17 -11 1 27
30 38 30 4 0 8 -1 8 -3z m810 -31 c-12 -34 -12 -60 0 -28 9 21 10 22 30 5 21
-18 27 -28 10 -18 -5 3 -10 3 -10 -2 0 -4 -10 -19 -21 -33 -17 -21 -19 -22
-10 -3 15 31 14 32 -16 27 -23 -4 -25 -3 -13 11 8 10 9 15 1 15 -6 0 -11 5
-11 10 0 6 6 10 14 10 7 0 16 10 19 22 4 12 9 20 12 16 3 -3 1 -17 -5 -32z
m120 12 c0 -4 -4 -8 -9 -8 -6 0 -12 4 -15 8 -3 5 1 9 9 9 8 0 15 -4 15 -9z
m1175 -17 c3 -5 2 -12 -3 -15 -5 -3 -9 1 -9 9 0 17 3 19 12 6z m-926 -39 c0
-24 -1 -25 -9 -7 -12 28 -12 47 0 40 6 -3 10 -18 9 -33z m73 4 c-4 -27 -6 -28
-13 -11 -11 30 -10 42 4 42 9 0 12 -10 9 -31z m-345 2 c-3 -8 -6 -5 -6 6 -1
11 2 17 5 13 3 -3 4 -12 1 -19z m323 -11 c0 -8 -4 -6 -10 3 -9 13 -11 13 -20
0 -8 -12 -10 -11 -10 8 0 20 3 21 20 12 11 -6 20 -16 20 -23z m-217 3 c3 -11
1 -18 -4 -14 -5 3 -9 12 -9 20 0 20 7 17 13 -6z m1224 -12 c-3 -7 -5 -2 -5 12
0 14 2 19 5 13 2 -7 2 -19 0 -25z m-1927 -33 c-14 -17 -100 -77 -100 -70 0 4
103 85 109 85 2 0 -2 -7 -9 -15z m40 1 c0 -2 -8 -10 -17 -17 -16 -13 -17 -12
-4 4 13 16 21 21 21 13z m1795 -66 c-4 -11 -11 -20 -17 -20 -7 0 -7 4 0 13 6
7 9 24 6 38 -5 21 -4 22 6 6 6 -9 8 -26 5 -37z m95 8 c0 -6 -6 -5 -15 2 -8 7
-15 14 -15 16 0 2 7 1 15 -2 8 -4 15 -11 15 -16z m-1164 -64 c-2 -32 0 -54 6
-54 6 0 8 11 6 25 -3 13 -1 23 5 22 6 -1 13 7 15 18 7 33 21 41 37 19 11 -15
15 -16 15 -4 1 10 4 9 10 -5 8 -19 9 -19 16 4 7 23 8 24 15 5 4 -10 5 -33 2
-50 -3 -18 0 -35 6 -38 7 -5 12 3 12 21 2 26 2 27 6 3 3 -13 13 -46 24 -72 10
-27 18 -53 16 -59 -1 -6 6 -13 16 -14 22 -4 22 7 -2 53 -25 49 -35 98 -22 107
6 3 11 15 11 27 0 17 2 18 15 8 8 -7 15 -8 15 -4 0 15 74 35 79 22 2 -6 10 0
17 13 7 13 13 18 14 12 0 -7 7 -13 15 -13 8 0 15 -5 15 -11 0 -5 4 -8 10 -4 5
3 6 13 3 23 -3 9 4 5 15 -10 25 -29 28 -43 10 -32 -8 4 -10 3 -5 -2 5 -5 14
-9 20 -9 6 0 15 -15 19 -32 5 -18 13 -33 18 -33 6 0 10 -12 10 -26 0 -16 4
-23 12 -18 7 5 8 3 3 -6 -6 -10 -11 -9 -22 6 -13 17 -14 16 -10 -19 4 -38 4
-38 -15 -17 -25 27 -28 25 -18 -11 8 -26 7 -29 -5 -19 -8 7 -15 10 -15 6 0 -3
-11 -1 -25 4 -20 8 -25 6 -25 -6 0 -10 -6 -14 -15 -10 -17 6 -18 4 -9 -18 3
-9 12 -16 20 -16 8 0 13 -3 13 -7 -1 -5 0 -10 1 -13 13 -35 4 -37 -22 -6 -23
28 -33 34 -39 24 -7 -11 -9 -11 -9 1 0 8 -6 11 -16 7 -8 -3 -12 -2 -9 3 3 5 1
12 -5 16 -6 4 -7 11 -4 17 4 7 2 8 -4 4 -7 -4 -12 -22 -13 -39 0 -29 -1 -30
-9 -9 -14 33 -20 27 -10 -10 l10 -33 -21 25 c-13 16 -19 19 -15 8 3 -10 1 -20
-4 -23 -6 -4 -10 2 -10 12 0 10 -4 25 -9 32 -7 10 -8 0 -5 -30 l4 -44 -15 48
c-9 26 -20 47 -25 47 -5 0 -12 10 -15 21 -5 16 -9 18 -15 9 -8 -13 -5 -45 6
-82 3 -10 1 -18 -5 -18 -6 0 -10 3 -9 8 1 4 -2 22 -6 40 -7 28 -18 36 -46 34
-8 -1 -9 36 -3 81 6 48 19 47 34 -3 7 -22 15 -40 19 -40 16 0 18 14 5 34 -8
11 -15 38 -15 59 0 23 -4 36 -10 32 -5 -3 -10 2 -11 12 -1 10 -6 2 -13 -17 -6
-19 -15 -40 -19 -47 -10 -16 -25 -142 -20 -164 3 -9 -1 -20 -8 -24 -8 -6 -10
-4 -4 6 8 12 6 12 -8 0 -16 -12 -17 -9 -17 43 0 52 -1 55 -19 45 -10 -7 -16
-20 -14 -29 2 -9 0 -32 -6 -51 l-11 -34 3 33 c2 18 0 35 -4 37 -4 3 -5 14 -2
24 3 10 -1 22 -7 26 -9 6 -11 -5 -5 -43 5 -37 3 -52 -7 -58 -7 -4 -10 -4 -6 0
3 4 2 21 -4 38 l-11 31 -13 -24 c-13 -24 -13 -24 -11 6 1 17 5 32 9 35 10 8
-3 61 -13 54 -8 -5 -13 30 -10 68 2 12 -4 15 -19 11 -16 -4 -20 -14 -21 -52
-1 -38 -3 -33 -10 28 -5 41 -7 77 -4 79 3 3 5 -4 5 -16 0 -30 36 -29 46 0 6
19 9 15 21 -27 7 -28 17 -70 21 -94 l7 -43 14 46 c11 38 16 44 27 35 8 -7 11
-21 8 -35 -3 -13 -2 -24 4 -24 12 0 24 43 13 50 -4 3 -11 28 -14 55 -4 35 -3
44 4 30 7 -15 8 -12 3 13 -3 20 -1 32 5 32 6 0 11 -4 11 -10 0 -5 5 -10 10
-10 6 0 10 9 10 20 0 13 5 18 14 14 11 -4 14 -20 12 -60z m-686 43 c0 -2 -10
-12 -22 -23 l-23 -19 19 23 c18 21 26 27 26 19z m605 -7 c3 -5 1 -10 -4 -10
-6 0 -11 5 -11 10 0 6 2 10 4 10 3 0 8 -4 11 -10z m625 -16 c0 -20 -7 -17 -20
6 -9 16 -8 18 5 14 8 -4 15 -12 15 -20z m388 1 c-4 -17 0 -26 11 -30 9 -3 30
-24 46 -46 22 -30 31 -36 33 -24 2 10 -1 22 -7 28 -15 15 -14 50 2 45 15 -5
22 -77 9 -90 -5 -5 -24 8 -47 36 -20 24 -43 42 -50 40 -18 -7 -27 24 -12 46
16 27 20 25 15 -5z m-760 -10 c-3 -3 -9 2 -12 12 -6 14 -5 15 5 6 7 -7 10 -15
7 -18z m686 1 c11 -18 13 -27 4 -32 -7 -4 -8 -3 -4 4 4 7 3 12 -2 12 -5 0 -12
9 -15 20 -7 26 -3 25 17 -4z m313 -8 c-3 -7 -5 -2 -5 12 0 14 2 19 5 13 2 -7
2 -19 0 -25z m-1360 0 c-3 -8 -6 -5 -6 6 -1 11 2 17 5 13 3 -3 4 -12 1 -19z
m658 16 c16 -7 50 -62 42 -70 -3 -3 -19 13 -37 36 -33 41 -33 44 -5 34z m346
-11 c2 1 3 0 1 -2 -1 -2 6 -13 15 -25 16 -18 15 -18 -14 3 -38 26 -56 49 -26
32 11 -6 22 -9 24 -8z m173 1 c3 -8 2 -12 -4 -9 -6 3 -10 10 -10 16 0 14 7 11
14 -7z m-1250 -10 c8 -20 -2 -36 -16 -28 -8 5 -9 1 -5 -10 12 -31 -5 -40 -19
-10 -7 16 -13 22 -13 14 -1 -9 5 -24 13 -35 12 -17 11 -22 -2 -35 -14 -13 -15
-12 -9 3 3 9 2 17 -3 17 -6 0 -10 -15 -11 -32 0 -26 -2 -29 -8 -14 -5 14 -10
16 -15 7 -4 -6 -5 -19 -2 -28 4 -10 2 -14 -7 -10 -10 4 -13 -2 -9 -19 2 -13 0
-24 -6 -24 -10 0 -9 19 3 116 7 46 11 53 49 77 50 31 52 31 60 11z m-114 -8
c0 -3 -4 -8 -10 -11 -5 -3 -10 -1 -10 4 0 6 5 11 10 11 6 0 10 -2 10 -4z m839
-41 c0 -5 -4 -3 -9 5 -5 8 -9 22 -9 30 0 16 17 -16 18 -35z m-876 22 c-3 -4
-8 -6 -11 -2 -3 3 -12 -5 -20 -17 -9 -15 -11 -17 -8 -5 3 10 6 22 6 27 0 5 9
8 19 7 11 0 17 -5 14 -10z m297 -24 c0 -43 -5 -41 -13 5 -4 18 -2 32 3 32 6 0
10 -16 10 -37z m17 5 c-3 -8 -6 -5 -6 6 -1 11 2 17 5 13 3 -3 4 -12 1 -19z
m653 -11 c0 -5 -4 -5 -10 -2 -5 3 -10 14 -10 23 0 15 2 15 10 2 5 -8 10 -19
10 -23z m-783 -44 c-3 -10 -5 -4 -5 12 0 17 2 24 5 18 2 -7 2 -21 0 -30z m56
-33 c6 -55 4 -62 -7 -48 -7 10 -15 16 -17 13 -5 -5 1 75 7 94 7 22 11 10 17
-59z m1237 -39 c0 -3 -9 7 -19 23 -11 17 -17 34 -14 39 5 8 33 -44 33 -62z
m-1302 18 c-3 -8 -7 -3 -11 10 -4 17 -3 21 5 13 5 -5 8 -16 6 -23z m195 -94
c4 -27 3 -35 -3 -25 -5 8 -10 28 -10 44 0 39 6 30 13 -19z m-206 13 c-3 -8 -6
-5 -6 6 -1 11 2 17 5 13 3 -3 4 -12 1 -19z m353 -56 c0 -15 -2 -15 -10 -2 -13
20 -13 33 0 25 6 -3 10 -14 10 -23z"/>
<path d="M4190 5480 c-13 -8 -12 -10 3 -10 9 0 17 5 17 10 0 12 -1 12 -20 0z"/>
<path d="M1832 5340 c0 -14 2 -19 5 -12 2 6 2 18 0 25 -3 6 -5 1 -5 -13z"/>
<path d="M4265 5350 c3 -5 8 -10 11 -10 2 0 4 5 4 10 0 6 -5 10 -11 10 -5 0
-7 -4 -4 -10z"/>
<path d="M1805 4970 c3 -5 8 -10 11 -10 2 0 4 5 4 10 0 6 -5 10 -11 10 -5 0
-7 -4 -4 -10z"/>
<path d="M4670 4760 c0 -5 5 -10 11 -10 5 0 7 5 4 10 -3 6 -8 10 -11 10 -2 0
-4 -4 -4 -10z"/>
<path d="M1513 4653 c9 -2 23 -2 30 0 6 3 -1 5 -18 5 -16 0 -22 -2 -12 -5z"/>
<path d="M5120 4511 c0 -15 30 -22 66 -15 44 8 54 24 15 24 -16 0 -31 -5 -33
-11 -3 -9 -10 -9 -26 0 -12 6 -22 8 -22 2z"/>
<path d="M1358 4448 c6 -6 18 -8 28 -6 14 3 12 5 -9 10 -19 3 -25 2 -19 -4z"/>
<path d="M5378 4433 c7 -3 16 -2 19 1 4 3 -2 6 -13 5 -11 0 -14 -3 -6 -6z"/>
<path d="M5320 4350 c0 -5 7 -10 16 -10 8 0 12 5 9 10 -3 6 -10 10 -16 10 -5
0 -9 -4 -9 -10z"/>
<path d="M1088 4233 c6 -2 18 -2 25 0 6 3 1 5 -13 5 -14 0 -19 -2 -12 -5z"/>
<path d="M545 4110 c3 -5 8 -10 11 -10 2 0 4 5 4 10 0 6 -5 10 -11 10 -5 0 -7
-4 -4 -10z"/>
<path d="M650 4100 c0 -5 5 -10 10 -10 6 0 10 5 10 10 0 6 -4 10 -10 10 -5 0
-10 -4 -10 -10z"/>
<path d="M615 4090 c-3 -5 1 -10 9 -10 9 0 16 5 16 10 0 6 -4 10 -9 10 -6 0
-13 -4 -16 -10z"/>
<path d="M706 4092 c-3 -3 -6 -9 -6 -14 0 -11 37 -10 44 1 6 10 -30 22 -38 13z"/>
<path d="M998 4063 c7 -3 16 -2 19 1 4 3 -2 6 -13 5 -11 0 -14 -3 -6 -6z"/>
<path d="M5835 4020 c-3 -5 -1 -10 4 -10 6 0 11 5 11 10 0 6 -2 10 -4 10 -3 0
-8 -4 -11 -10z"/>
<path d="M5790 3939 c0 -5 5 -7 10 -4 6 3 10 8 10 11 0 2 -4 4 -10 4 -5 0 -10
-5 -10 -11z"/>
<path d="M2274 3611 c17 -18 16 -19 -24 -17 -37 2 -40 1 -25 -11 10 -7 23 -10
29 -6 6 3 7 2 3 -3 -4 -4 -24 -7 -43 -5 -18 1 -34 -2 -34 -7 0 -11 -39 -4 -57
11 -9 6 -13 6 -13 -2 0 -6 4 -11 8 -11 4 0 23 -14 42 -31 19 -17 28 -28 19
-26 -19 6 -30 -1 -45 -28 -6 -11 -21 -21 -33 -23 -30 -5 -26 -22 7 -23 24 -2
23 -2 -8 -9 -32 -7 -17 -15 18 -11 23 3 12 -17 -13 -23 -14 -4 -23 -10 -21
-15 3 -5 -3 -11 -14 -14 -22 -6 -28 -27 -7 -27 7 0 13 -9 14 -20 1 -12 -4 -20
-13 -20 -8 0 -12 -4 -9 -10 3 -5 -2 -10 -12 -10 -17 -1 -17 -1 1 -11 17 -11
17 -13 -10 -35 -18 -14 -23 -23 -14 -24 10 0 7 -5 -8 -16 -12 -8 -20 -19 -17
-24 3 -4 -5 -6 -17 -3 -17 3 -19 2 -9 -5 11 -8 9 -14 -9 -32 -23 -23 -23 -23
-2 -18 32 9 27 -11 -5 -23 -22 -8 -24 -12 -13 -19 11 -7 4 -10 -25 -11 -33 0
-36 -2 -20 -10 17 -8 16 -9 -7 -6 -15 2 -25 0 -22 -4 3 -5 -8 -9 -25 -9 -16 0
-33 -4 -36 -10 -3 -5 1 -10 11 -10 13 0 14 -3 4 -15 -11 -13 -8 -15 21 -16
l34 -2 -35 -7 c-29 -6 -31 -8 -10 -9 l25 -2 -23 -9 c-12 -5 -30 -7 -40 -4 -9
2 -7 -1 6 -7 25 -14 24 -36 -1 -31 -12 2 -15 -2 -10 -14 5 -14 3 -16 -11 -11
-9 4 -15 3 -12 -2 3 -5 -2 -12 -11 -15 -14 -6 -14 -8 3 -20 17 -13 16 -14 -11
-9 -26 4 -28 3 -12 -7 11 -7 24 -13 30 -14 7 -1 12 -6 12 -11 0 -6 -4 -9 -10
-7 -5 2 -1 -6 10 -18 18 -20 18 -21 0 -14 -12 5 -16 4 -12 -3 10 -16 -16 -22
-57 -13 -20 4 -34 4 -31 0 3 -5 -1 -11 -7 -13 -7 -3 1 -6 19 -6 17 -1 34 -5
37 -10 3 -4 -5 -6 -18 -4 -13 3 -27 0 -31 -6 -3 -6 -3 -11 2 -10 4 1 15 1 23
-1 11 -1 9 -4 -5 -10 -17 -7 -16 -9 10 -10 l30 -1 -25 -11 c-14 -6 -38 -14
-55 -19 -22 -6 -13 -7 37 -6 71 2 117 -17 53 -21 -19 -2 -45 -7 -57 -12 -17
-7 -11 -8 25 -5 41 3 47 2 37 -11 -10 -11 -9 -14 2 -14 8 0 15 -7 15 -15 0 -8
-3 -13 -6 -11 -3 2 -15 0 -26 -5 -19 -7 -19 -8 3 -8 13 -1 20 -5 17 -11 -4 -6
6 -11 22 -11 27 -2 27 -2 3 -6 -39 -7 -49 -23 -14 -23 29 -1 29 -1 6 -13 -12
-7 -19 -16 -16 -20 4 -4 1 -7 -7 -7 -12 0 -12 -2 0 -9 11 -7 4 -14 -27 -30
-23 -12 -42 -24 -42 -26 0 -3 18 4 39 14 27 14 51 19 77 15 52 -6 60 -18 34
-44 -19 -19 -20 -21 -3 -20 10 1 27 1 38 0 19 -1 19 -2 -2 -12 -35 -17 -28
-26 17 -24 22 1 40 0 40 -4 0 -13 68 -39 113 -43 58 -6 55 0 -10 18 -26 7 -39
14 -28 14 11 0 41 -6 68 -14 26 -8 47 -10 47 -5 0 4 14 13 31 19 39 13 63 14
30 0 -13 -5 -21 -12 -18 -15 8 -8 106 15 113 27 3 5 -2 6 -10 3 -9 -3 -16 -3
-16 0 0 4 14 12 31 18 l32 11 -24 13 c-13 7 -18 13 -10 14 8 0 11 6 7 16 -3 8
-2 12 4 9 6 -3 10 0 10 9 0 8 6 16 12 18 7 3 13 22 13 45 0 36 -2 40 -17 32
-9 -5 -23 -9 -30 -8 -7 0 4 7 25 16 20 8 37 21 37 29 0 8 5 14 11 14 5 0 7 5
4 10 -3 6 0 10 8 10 7 0 20 11 27 25 7 13 22 27 32 31 10 3 15 10 12 16 -4 6
6 21 22 33 16 13 30 28 30 34 1 6 2 15 3 20 0 5 20 28 43 50 22 23 36 41 30
41 -7 0 -12 -5 -12 -12 0 -6 -3 -8 -6 -5 -11 10 23 55 47 62 17 6 19 9 8 16
-10 6 -8 9 10 9 17 0 22 4 19 18 -5 17 13 42 28 42 4 0 16 8 26 17 16 14 22
15 40 4 11 -7 22 -10 25 -7 3 3 -2 8 -11 12 -9 3 -16 14 -16 24 0 14 5 17 22
12 12 -3 17 -7 10 -10 -13 -4 -7 -22 8 -22 8 0 6 39 -2 45 -2 1 -12 8 -23 14
-15 9 -16 11 -2 7 20 -6 22 4 5 23 -11 11 -10 13 4 8 24 -8 32 9 11 22 -10 6
-14 11 -9 11 5 0 1 10 -10 21 -19 22 -19 22 4 10 12 -6 22 -17 22 -23 0 -6 3
-9 6 -5 4 3 -3 22 -14 40 -11 19 -23 49 -27 66 -4 19 -11 29 -18 24 -7 -4 -8
0 -3 13 5 10 8 24 7 29 -1 6 -4 32 -7 58 -4 29 -12 51 -21 54 -12 5 -12 7 -2
14 10 6 6 13 -14 29 -15 12 -27 27 -27 33 0 7 4 6 10 -3 5 -8 10 -11 10 -7 0
12 -73 97 -83 97 -5 0 -28 15 -50 33 -23 17 -38 27 -34 20 13 -21 -18 -20 -44
1 -15 13 -37 21 -55 20 -16 -1 -29 -3 -29 -4 0 -1 -17 -3 -37 -4 -21 -1 -38 2
-38 6 0 4 -5 8 -12 8 -6 0 -4 -8 6 -19z m150 -426 c4 -16 11 -23 18 -19 7 5 9
2 5 -9 -4 -10 0 -17 11 -20 12 -3 10 -5 -6 -6 -17 -1 -26 7 -33 29 -6 17 -15
30 -20 30 -5 0 -9 5 -9 10 0 21 28 9 34 -15z m280 -15 c-5 -5 -10 3 -11 18 -1
22 0 24 9 8 6 -10 6 -22 2 -26z m-445 -100 c1 -13 0 -13 -9 0 -5 8 -9 26 -9
40 l1 25 8 -25 c4 -14 8 -32 9 -40z m35 -45 c14 -14 22 -25 17 -25 -8 0 -51
38 -51 45 0 10 10 4 34 -20z m291 -14 c-3 -12 -10 -21 -15 -21 -5 0 -4 11 2
25 13 29 23 26 13 -4z m-15 -43 c0 -4 -4 -8 -9 -8 -6 0 -12 4 -15 8 -3 5 1 9
9 9 8 0 15 -4 15 -9z m-763 -134 c-3 -3 -12 -4 -19 -1 -8 3 -5 6 6 6 11 1 17
-2 13 -5z m493 -394 c-8 -5 -19 -10 -25 -10 -5 0 -3 5 5 10 8 5 20 10 25 10 6
0 3 -5 -5 -10z m-493 -16 c-3 -3 -12 -4 -19 -1 -8 3 -5 6 6 6 11 1 17 -2 13
-5z m416 -111 c-7 -2 -19 -2 -25 0 -7 3 -2 5 12 5 14 0 19 -2 13 -5z"/>
<path d="M3939 3600 c-20 -11 -39 -27 -43 -36 -4 -10 -13 -14 -25 -11 -14 3
-18 1 -14 -9 3 -8 -10 -28 -28 -47 -19 -17 -47 -48 -64 -67 -29 -33 -29 -34
-2 -11 33 29 36 17 5 -17 -13 -14 -17 -22 -10 -18 20 12 13 -8 -12 -31 -26
-25 -39 -81 -24 -100 7 -8 6 -23 -1 -44 -6 -19 -7 -38 -2 -47 6 -11 3 -24 -8
-41 -9 -14 -11 -22 -4 -18 6 4 15 3 18 -3 4 -6 3 -10 -2 -9 -24 4 -37 -1 -26
-12 6 -6 9 -18 6 -25 -3 -8 0 -14 7 -14 6 0 8 -4 5 -10 -3 -5 -1 -10 6 -10 8
0 8 -4 -1 -15 -10 -12 -10 -15 3 -15 22 0 31 -18 17 -35 -8 -10 -9 -15 -2 -15
6 0 14 5 17 10 3 6 11 10 17 10 6 0 9 -3 5 -6 -3 -3 13 -25 37 -47 23 -23 48
-51 56 -61 14 -18 14 -19 -10 -7 -18 9 -15 3 13 -21 20 -18 37 -38 37 -43 0
-6 11 -22 24 -37 14 -14 22 -28 19 -31 -3 -3 13 -24 35 -46 22 -23 35 -42 28
-45 -7 -3 -7 -5 2 -5 6 -1 12 -6 12 -12 0 -6 -7 -8 -17 -4 -15 5 -14 3 2 -13
11 -10 25 -17 31 -15 7 2 15 -1 20 -8 4 -7 3 -10 -4 -5 -6 3 -13 2 -17 -3 -3
-5 3 -14 12 -20 10 -6 14 -11 8 -11 -5 0 1 -7 13 -16 12 -8 20 -19 17 -24 -3
-4 3 -7 12 -6 11 1 18 -6 18 -19 0 -11 6 -23 15 -28 8 -4 2 -5 -15 -1 -44 8
-19 -13 30 -25 38 -10 38 -10 6 -7 -31 3 -32 2 -16 -11 18 -12 10 -19 -18 -14
-5 1 -6 -3 -2 -9 3 -5 28 -10 56 -10 27 0 49 -4 49 -8 0 -5 -14 -6 -32 -4 -29
4 -31 3 -17 -11 20 -20 96 -30 134 -18 l30 9 -35 3 c-19 1 -2 5 38 9 41 3 77
11 80 17 4 5 14 13 22 16 12 4 12 6 -2 6 -9 1 -20 6 -24 13 -5 8 0 9 16 5 13
-3 28 0 37 9 8 8 11 14 6 14 -4 0 -1 5 7 10 8 5 10 10 4 10 -7 0 -15 7 -18 16
-5 13 0 15 27 10 23 -4 27 -4 12 3 -18 8 -18 10 -4 16 10 3 23 6 30 4 58 -7
76 16 29 38 -24 11 -24 11 -3 12 15 1 21 7 20 20 0 11 -6 17 -14 14 -7 -3 -13
0 -13 7 0 7 -9 9 -22 6 -13 -3 -17 -3 -10 0 10 5 9 9 -5 20 -16 12 -15 13 15
8 17 -4 32 -2 32 3 0 5 -14 10 -32 11 -43 3 -55 25 -20 35 15 5 41 9 57 9 17
1 22 3 13 5 -10 3 -18 9 -18 14 0 6 9 8 20 4 15 -5 18 -3 14 9 -3 9 -15 16
-26 16 -11 0 -26 7 -34 15 -9 8 -24 15 -34 15 -10 0 -22 5 -25 11 -5 7 7 9 39
6 35 -4 46 -2 46 9 0 8 -10 14 -26 14 -15 0 -23 4 -19 10 4 7 -3 8 -21 4 -19
-5 -25 -4 -20 5 4 6 14 11 22 11 14 0 13 2 0 16 -23 22 -20 27 10 20 16 -4 23
-3 20 3 -4 5 -2 12 4 16 15 9 1 27 -16 21 -8 -3 -14 -1 -14 4 0 6 5 10 10 10
6 0 10 4 10 9 0 5 -6 9 -12 8 -7 0 -26 1 -43 3 l-30 2 30 8 c30 8 30 8 4 9
-34 1 -45 27 -16 36 22 6 22 6 2 15 -28 12 -37 12 -29 -2 4 -7 3 -8 -5 -4 -20
13 0 28 31 24 l30 -5 -23 18 c-13 10 -40 19 -59 20 -35 1 -35 2 7 8 24 4 46
10 49 14 4 3 -11 3 -31 0 -33 -5 -37 -4 -32 10 5 13 1 17 -18 17 -31 0 -43 20
-16 27 19 5 15 9 -24 27 -31 16 -42 25 -34 33 7 7 6 15 -5 26 -22 21 -20 27 7
27 16 1 11 5 -16 15 -46 16 -57 25 -32 25 10 0 15 3 12 7 -4 3 -2 12 4 19 8 9
5 16 -11 24 -11 6 -19 18 -18 27 2 11 -6 19 -22 23 -24 6 -24 6 -5 18 13 7 15
11 6 12 -11 0 -9 4 5 15 19 15 19 15 0 30 -11 8 -29 15 -40 15 -17 0 -18 2 -6
10 13 9 13 10 0 10 -13 0 -13 1 0 10 10 6 2 8 -25 4 -37 -6 -38 -5 -21 8 16
12 17 18 7 34 -7 10 -10 12 -8 4 3 -11 -4 -15 -29 -15 -18 0 -36 4 -41 9 -4 5
-3 6 4 2 7 -4 21 -2 30 3 16 9 15 10 -7 11 -18 0 -21 3 -12 9 19 11 -20 22
-40 10 -14 -8 -41 2 -39 15 1 3 1 13 1 23 0 15 -1 15 -18 0 -23 -21 -39 -22
-22 -2 16 19 13 18 -31 -5z m-94 -119 c-3 -6 -11 -11 -17 -11 -6 0 -6 6 2 15
14 17 26 13 15 -4z m-53 -113 c-17 -17 -15 -28 5 -21 11 4 14 3 9 -5 -10 -16
-33 -15 -39 2 -6 14 10 36 27 36 6 0 5 -5 -2 -12z m260 -230 c-29 -11 -44 -9
-39 7 4 8 1 17 -5 21 -7 4 -6 9 3 14 8 5 21 0 35 -13 21 -20 21 -23 6 -29z
m-117 21 c4 -6 13 -8 21 -5 9 3 11 0 7 -11 -4 -10 -2 -14 5 -9 6 3 13 2 17 -4
12 -20 -38 -10 -56 12 -19 21 -20 21 -34 2 -15 -20 -19 -16 -9 10 7 18 39 21
49 5z m175 -77 c0 -37 -39 -111 -60 -113 -6 -1 -14 -2 -19 -3 -5 0 -13 -4 -17
-8 -10 -11 -42 -9 -88 5 -39 12 -38 12 31 12 69 0 72 1 107 38 33 35 35 42 29
79 -4 30 -3 39 5 34 7 -4 12 -24 12 -44z m-375 -22 c-3 -5 -11 -10 -16 -10 -6
0 -7 5 -4 10 3 6 11 10 16 10 6 0 7 -4 4 -10z m96 -42 c10 -13 18 -34 19 -48
0 -22 -2 -23 -15 -9 -15 15 -38 79 -28 79 2 0 13 -10 24 -22z m616 6 c-3 -3
-12 -4 -19 -1 -8 3 -5 6 6 6 11 1 17 -2 13 -5z m83 -304 c13 -8 13 -10 -2 -10
-9 0 -20 5 -23 10 -8 13 5 13 25 0z m-480 -130 c0 -5 -5 -10 -11 -10 -5 0 -7
5 -4 10 3 6 8 10 11 10 2 0 4 -4 4 -10z m490 -80 c13 -8 13 -10 -2 -10 -9 0
-20 5 -23 10 -8 13 5 13 25 0z"/>
<path d="M4029 3603 c-13 -16 -12 -17 4 -4 9 7 17 15 17 17 0 8 -8 3 -21 -13z"/>
<path d="M525 3200 c27 -12 43 -12 25 0 -8 5 -22 9 -30 9 -10 0 -8 -3 5 -9z"/>
<path d="M535 3170 c-16 -7 -17 -9 -3 -9 9 -1 18 -5 20 -11 2 -6 8 -6 18 0 13
8 12 10 -3 10 -10 0 -15 5 -12 10 7 11 7 11 -20 0z"/>
<path d="M3696 3152 c-3 -5 1 -9 9 -9 8 0 12 4 9 9 -3 4 -7 8 -9 8 -2 0 -6 -4
-9 -8z"/>
<path d="M578 3133 c7 -3 16 -2 19 1 4 3 -2 6 -13 5 -11 0 -14 -3 -6 -6z"/>
<path d="M4498 2973 c7 -3 16 -2 19 1 4 3 -2 6 -13 5 -11 0 -14 -3 -6 -6z"/>
<path d="M475 2930 c-3 -5 -1 -10 4 -10 6 0 11 5 11 10 0 6 -2 10 -4 10 -3 0
-8 -4 -11 -10z"/>
<path d="M5638 2903 c7 -3 16 -2 19 1 4 3 -2 6 -13 5 -11 0 -14 -3 -6 -6z"/>
<path d="M2555 2830 c-3 -5 -2 -10 4 -10 5 0 13 5 16 10 3 6 2 10 -4 10 -5 0
-13 -4 -16 -10z"/>
<path d="M5672 2776 c13 -13 25 -22 27 -20 6 5 -30 44 -41 44 -5 0 2 -11 14
-24z"/>
<path d="M5621 2753 c16 -27 25 -28 44 -9 12 12 12 15 0 20 -8 3 -17 1 -21 -5
-4 -6 -11 -5 -21 3 -15 12 -15 11 -2 -9z"/>
<path d="M494 2695 c-18 -13 -16 -14 26 -14 25 1 36 4 25 6 -11 3 -23 9 -26
14 -3 5 -14 2 -25 -6z"/>
<path d="M563 2570 c-23 -9 -32 -30 -14 -30 10 0 41 28 41 36 0 5 1 5 -27 -6z"/>
<path d="M5540 2529 c0 -5 5 -7 10 -4 6 3 10 8 10 11 0 2 -4 4 -10 4 -5 0 -10
-5 -10 -11z"/>
<path d="M1365 2470 c-3 -5 -2 -10 4 -10 5 0 13 5 16 10 3 6 2 10 -4 10 -5 0
-13 -4 -16 -10z"/>
<path d="M1650 2470 c-34 -7 -34 -7 -5 -8 17 0 44 4 60 8 27 7 27 8 5 8 -14
-1 -41 -4 -60 -8z"/>
<path d="M1340 2440 c-20 -6 -21 -8 -5 -8 11 0 29 3 40 8 25 11 -1 11 -35 0z"/>
<path d="M1760 2364 c-25 -14 -36 -22 -25 -18 11 3 27 7 35 7 8 0 28 9 45 19
47 28 0 21 -55 -8z"/>
<path d="M1340 2335 c-8 -9 -9 -15 -2 -15 6 0 14 5 17 10 4 6 10 8 14 6 4 -3
21 -1 37 4 28 8 27 8 -12 9 -26 1 -46 -5 -54 -14z"/>
<path d="M835 2330 c-3 -5 1 -10 9 -10 9 0 16 5 16 10 0 6 -4 10 -9 10 -6 0
-13 -4 -16 -10z"/>
<path d="M5460 2325 c-8 -9 -8 -15 -2 -15 12 0 26 19 19 26 -2 2 -10 -2 -17
-11z"/>
<path d="M1384 2319 c-4 -8 3 -9 25 -4 19 4 31 3 31 -4 0 -6 -7 -8 -15 -5 -8
4 -15 1 -15 -6 0 -7 -7 -10 -16 -6 -24 9 -35 -3 -21 -24 7 -12 23 -20 40 -20
16 0 26 -4 22 -10 -3 -6 1 -7 10 -3 13 5 14 7 3 14 -9 6 -6 9 12 9 24 1 76 30
53 30 -7 0 -14 -4 -17 -9 -3 -5 -15 -7 -26 -4 -11 3 -27 0 -35 -7 -21 -18 -19
-7 5 20 16 18 17 25 8 32 -19 11 -56 10 -64 -3z"/>
<path d="M1545 2290 c-19 -8 -19 -9 2 -9 12 -1 25 4 28 9 7 12 -2 12 -30 0z"/>
<path d="M5419 2279 c-11 -7 -10 -9 6 -9 15 0 17 -3 7 -9 -11 -6 -9 -9 6 -13
11 -3 26 -2 33 3 11 7 10 9 -4 9 -10 0 -16 4 -13 9 8 13 -18 21 -35 10z"/>
<path d="M5485 2280 c-3 -5 1 -10 10 -10 9 0 13 5 10 10 -3 6 -8 10 -10 10 -2
0 -7 -4 -10 -10z"/>
<path d="M1339 2271 c11 -7 11 -9 0 -14 -10 -4 -9 -6 3 -6 23 -1 32 15 12 23
-23 9 -31 7 -15 -3z"/>
<path d="M698 2263 c7 -3 16 -2 19 1 4 3 -2 6 -13 5 -11 0 -14 -3 -6 -6z"/>
<path d="M745 2260 c-13 -6 -15 -9 -5 -9 8 0 22 4 30 9 18 12 2 12 -25 0z"/>
<path d="M629 2240 c-13 -10 -18 -19 -11 -20 6 0 12 4 12 8 0 5 12 13 28 19
16 6 20 11 11 12 -9 1 -27 -8 -40 -19z"/>
<path d="M695 2241 c-3 -6 3 -9 14 -8 11 0 17 5 15 9 -7 11 -22 10 -29 -1z"/>
<path d="M1478 2243 c6 -2 18 -2 25 0 6 3 1 5 -13 5 -14 0 -19 -2 -12 -5z"/>
<path d="M2018 2243 c6 -2 18 -2 25 0 6 3 1 5 -13 5 -14 0 -19 -2 -12 -5z"/>
<path d="M2083 2233 c9 -2 23 -2 30 0 6 3 -1 5 -18 5 -16 0 -22 -2 -12 -5z"/>
<path d="M1381 2221 c-11 -7 -10 -10 5 -15 23 -7 51 -3 61 8 4 5 -7 6 -25 3
-21 -4 -31 -3 -27 3 8 12 4 12 -14 1z"/>
<path d="M1468 2213 c6 -2 18 -2 25 0 6 3 1 5 -13 5 -14 0 -19 -2 -12 -5z"/>
<path d="M5436 2205 c4 -8 10 -12 15 -9 5 3 9 0 9 -7 0 -7 2 -10 5 -7 9 9 -7
38 -21 38 -8 0 -11 -6 -8 -15z"/>
<path d="M5488 2213 c7 -3 16 -2 19 1 4 3 -2 6 -13 5 -11 0 -14 -3 -6 -6z"/>
<path d="M1410 2150 c0 -5 5 -10 10 -10 6 0 10 5 10 10 0 6 -4 10 -10 10 -5 0
-10 -4 -10 -10z"/>
<path d="M3100 2150 c0 -5 5 -10 10 -10 6 0 10 5 10 10 0 6 -4 10 -10 10 -5 0
-10 -4 -10 -10z"/>
<path d="M1557 2143 c-4 -3 -24 -6 -44 -5 -21 1 -45 -3 -53 -8 -13 -8 -12 -10
3 -10 24 0 21 -16 -5 -25 -20 -6 -20 -8 -5 -12 16 -4 16 -6 -3 -21 -20 -17
-20 -17 17 -19 23 -1 32 1 24 6 -9 6 -10 11 -2 15 6 4 11 4 11 -1 0 -4 5 -1
10 9 7 12 21 15 52 12 l43 -3 -38 8 c-40 8 -59 21 -41 28 15 5 51 32 43 33 -3
0 -9 -3 -12 -7z"/>
<path d="M5400 2140 c0 -5 5 -10 11 -10 5 0 7 5 4 10 -3 6 -8 10 -11 10 -2 0
-4 -4 -4 -10z"/>
<path d="M2936 2124 c-5 -14 -4 -15 9 -4 17 14 19 20 6 20 -5 0 -12 -7 -15
-16z"/>
<path d="M5200 2126 c0 -2 7 -7 16 -10 8 -3 12 -2 9 4 -6 10 -25 14 -25 6z"/>
<path d="M3038 2113 c7 -3 16 -2 19 1 4 3 -2 6 -13 5 -11 0 -14 -3 -6 -6z"/>
<path d="M3150 2109 c0 -5 5 -7 10 -4 6 3 10 8 10 11 0 2 -4 4 -10 4 -5 0 -10
-5 -10 -11z"/>
<path d="M1065 2090 c-3 -5 -2 -10 4 -10 5 0 13 5 16 10 3 6 2 10 -4 10 -5 0
-13 -4 -16 -10z"/>
<path d="M1115 2091 c-3 -5 -2 -12 3 -15 5 -3 9 1 9 9 0 17 -3 19 -12 6z"/>
<path d="M3222 2084 c3 -17 21 -21 26 -6 1 5 -4 12 -13 16 -11 4 -15 1 -13
-10z"/>
<path d="M2983 2083 c-7 -2 -13 -10 -13 -17 0 -15 40 -18 41 -3 0 7 4 3 9 -8
7 -17 9 -17 9 -2 1 9 6 17 11 17 6 0 10 5 10 11 0 8 -5 8 -15 -1 -8 -7 -15 -9
-15 -5 0 4 -8 1 -17 -6 -15 -12 -16 -12 -10 4 3 9 5 17 4 16 -1 0 -8 -3 -14
-6z"/>
<path d="M3380 2070 c0 -11 4 -20 9 -20 5 0 7 9 4 20 -3 11 -7 20 -9 20 -2 0
-4 -9 -4 -20z"/>
<path d="M5230 2079 c0 -5 5 -7 10 -4 6 3 10 8 10 11 0 2 -4 4 -10 4 -5 0 -10
-5 -10 -11z"/>
<path d="M3261 2064 c0 -11 3 -14 6 -6 3 7 2 16 -1 19 -3 4 -6 -2 -5 -13z"/>
<path d="M3175 2061 c-3 -5 -1 -12 5 -16 5 -3 10 1 10 9 0 18 -6 21 -15 7z"/>
<path d="M5305 2060 c-3 -5 1 -10 10 -10 9 0 13 5 10 10 -3 6 -8 10 -10 10 -2
0 -7 -4 -10 -10z"/>
<path d="M1608 2043 c12 -2 30 -2 40 0 9 3 -1 5 -23 4 -22 0 -30 -2 -17 -4z"/>
<path d="M1252 2020 c0 -14 2 -19 5 -12 2 6 2 18 0 25 -3 6 -5 1 -5 -13z"/>
<path d="M1505 2030 c-16 -7 -17 -9 -3 -9 9 -1 20 4 23 9 7 11 7 11 -20 0z"/>
<path d="M1015 2021 c-3 -6 -10 -9 -15 -6 -4 3 -19 -4 -31 -16 -13 -11 -18
-18 -12 -14 20 10 56 17 80 16 12 0 25 4 28 9 3 6 2 10 -4 10 -5 0 -16 3 -24
6 -8 3 -18 0 -22 -5z"/>
<path d="M1195 2020 c-30 -8 -30 -8 8 -9 20 0 37 4 37 9 0 11 -2 11 -45 0z"/>
<path d="M1275 2020 c-3 -5 -1 -10 4 -10 6 0 11 5 11 10 0 6 -2 10 -4 10 -3 0
-8 -4 -11 -10z"/>
<path d="M5284 2023 c4 -7 2 -13 -3 -13 -6 0 -11 -4 -11 -10 0 -5 6 -10 14
-10 15 0 16 24 1 37 -4 4 -5 2 -1 -4z"/>
<path d="M1566 2004 c-3 -9 -6 -18 -6 -20 0 -8 49 -4 55 6 6 10 36 2 46 -13 3
-5 19 -7 35 -5 26 4 25 5 -19 17 -26 8 -50 17 -53 22 -9 15 -52 10 -58 -7z"/>
<path d="M3622 1998 c8 -12 25 -28 39 -36 21 -12 21 -11 -3 10 -16 13 -28 29
-28 36 0 7 -5 12 -11 12 -8 0 -6 -8 3 -22z"/>
<path d="M1128 1976 c-13 -18 -14 -26 -5 -36 9 -10 7 -10 -13 0 -23 12 -24 12
-12 -3 12 -14 10 -17 -12 -23 -14 -3 -30 -12 -36 -19 -9 -11 -4 -11 27 0 20 7
48 26 61 41 13 16 21 23 18 17 -5 -9 3 -13 26 -13 25 0 29 3 18 10 -10 6 -11
10 -2 10 6 0 12 7 12 15 0 8 8 15 18 16 10 0 12 3 4 6 -7 3 -26 0 -42 -6 -18
-6 -30 -6 -30 0 0 16 -14 9 -32 -15z"/>
<path d="M5170 1986 c0 -15 18 -31 26 -23 7 7 -7 37 -17 37 -5 0 -9 -6 -9 -14z"/>
<path d="M5207 1968 c-7 -25 13 -44 25 -25 6 9 8 8 9 -3 0 -10 3 -8 9 5 5 14
3 24 -8 33 -22 17 -29 15 -35 -10z"/>
<path d="M1305 1970 c-3 -6 1 -7 9 -4 18 7 21 14 7 14 -6 0 -13 -4 -16 -10z"/>
<path d="M5316 1967 c3 -10 9 -15 12 -12 3 3 0 11 -7 18 -10 9 -11 8 -5 -6z"/>
<path d="M1075 1960 c-3 -6 1 -7 9 -4 18 7 21 14 7 14 -6 0 -13 -4 -16 -10z"/>
<path d="M1530 1945 c-10 -12 -9 -15 4 -15 10 0 15 4 12 9 -4 5 0 12 6 14 8 4
9 6 2 6 -6 1 -17 -6 -24 -14z"/>
<path d="M1748 1953 c7 -3 16 -2 19 1 4 3 -2 6 -13 5 -11 0 -14 -3 -6 -6z"/>
<path d="M5054 1948 c-4 -7 -4 -10 1 -6 4 4 14 0 21 -10 7 -9 14 -12 14 -6 0
6 -6 17 -14 23 -11 9 -16 9 -22 -1z"/>
<path d="M5121 1938 c10 -18 9 -20 -7 -14 -17 5 -17 5 1 -9 18 -14 20 -14 28
7 5 14 3 24 -5 30 -23 14 -29 9 -17 -14z"/>
<path d="M1636 1938 c3 -4 17 -8 31 -8 15 0 23 3 20 7 -10 9 -56 10 -51 1z"/>
<path d="M1733 1933 c9 -2 23 -2 30 0 6 3 -1 5 -18 5 -16 0 -22 -2 -12 -5z"/>
<path d="M4615 1920 c3 -5 8 -10 11 -10 2 0 4 5 4 10 0 6 -5 10 -11 10 -5 0
-7 -4 -4 -10z"/>
<path d="M1675 1910 c-3 -5 -3 -10 2 -10 4 0 1 -5 -7 -10 -12 -8 -10 -10 9
-10 19 0 21 3 12 14 -10 11 -8 15 6 19 16 4 16 5 1 6 -9 0 -20 -3 -23 -9z"/>
<path d="M1757 1909 c7 -7 15 -10 18 -7 3 3 -2 9 -12 12 -14 6 -15 5 -6 -5z"/>
<path d="M1591 1895 c-18 -8 -38 -12 -45 -8 -6 3 -6 0 2 -8 10 -11 16 -11 32
-1 11 6 26 12 34 12 8 0 18 5 21 10 8 13 -4 12 -44 -5z"/>
<path d="M5150 1901 c0 -6 4 -13 10 -16 6 -3 7 1 4 9 -7 18 -14 21 -14 7z"/>
<path d="M1107 1866 c-25 -20 -26 -24 -12 -30 26 -10 67 -7 60 4 -3 6 -18 7
-32 4 -18 -5 -24 -3 -19 5 4 6 14 11 22 11 8 0 13 4 10 9 -4 5 0 12 6 14 7 3
9 6 3 6 -5 0 -23 -10 -38 -23z"/>
<path d="M4991 1864 c13 -16 29 -19 29 -5 0 5 -9 11 -21 14 -16 4 -18 3 -8 -9z"/>
<path d="M2680 1860 c-13 -8 -13 -10 2 -10 9 0 20 5 23 10 8 13 -5 13 -25 0z"/>
<path d="M4840 1846 c0 -2 8 -10 18 -17 15 -13 16 -12 3 4 -13 16 -21 21 -21
13z"/>
<path d="M5113 1829 c2 -13 9 -25 15 -27 6 -2 8 5 5 18 -8 29 -24 36 -20 9z"/>
<path d="M5229 1848 c-7 -25 -5 -36 6 -31 8 2 11 11 8 19 -5 12 -12 18 -14 12z"/>
<path d="M1788 1823 c7 -3 16 -2 19 1 4 3 -2 6 -13 5 -11 0 -14 -3 -6 -6z"/>
<path d="M1838 1823 c7 -3 16 -2 19 1 4 3 -2 6 -13 5 -11 0 -14 -3 -6 -6z"/>
<path d="M1908 1823 c6 -2 18 -2 25 0 6 3 1 5 -13 5 -14 0 -19 -2 -12 -5z"/>
<path d="M2008 1823 c6 -2 18 -2 25 0 6 3 1 5 -13 5 -14 0 -19 -2 -12 -5z"/>
<path d="M2669 1828 c-7 -24 -5 -38 6 -38 8 0 17 5 20 10 3 6 1 10 -5 10 -6 0
-8 5 -5 10 3 6 1 10 -4 10 -6 0 -11 -1 -12 -2z"/>
<path d="M4930 1817 c8 -9 28 -18 44 -21 18 -3 26 -2 20 4 -5 5 -18 11 -29 13
-11 1 -27 6 -35 11 -13 8 -13 7 0 -7z"/>
<path d="M1335 1810 c-16 -7 -17 -9 -3 -9 9 -1 20 4 23 9 7 11 7 11 -20 0z"/>
<path d="M1720 1811 c0 -5 -14 -11 -31 -15 -17 -3 -28 -10 -25 -15 4 -5 14 -8
24 -6 9 2 19 4 22 4 11 2 30 41 20 41 -5 0 -10 -4 -10 -9z"/>
<path d="M2063 1813 c26 -7 21 -23 -7 -23 -14 0 -28 -5 -31 -10 -7 -11 54 -13
109 -3 25 4 27 7 12 15 -9 5 -25 7 -35 3 -12 -3 -21 0 -25 10 -3 8 -13 14 -23
14 -17 -1 -17 -2 0 -6z"/>
<path d="M4826 1807 c3 -10 9 -15 12 -12 3 3 0 11 -7 18 -10 9 -11 8 -5 -6z"/>
<path d="M1293 1795 c0 -8 4 -12 9 -9 4 3 8 9 8 15 0 5 -4 9 -8 9 -5 0 -9 -7
-9 -15z"/>
<path d="M1988 1803 c7 -3 16 -2 19 1 4 3 -2 6 -13 5 -11 0 -14 -3 -6 -6z"/>
<path d="M1768 1788 c-16 -5 -28 -17 -28 -25 0 -10 6 -13 16 -9 9 3 24 6 35 6
10 0 19 6 19 14 0 9 8 12 24 9 13 -3 26 -1 30 5 7 12 -60 12 -96 0z m12 -12
c0 -2 -7 -7 -16 -10 -8 -3 -12 -2 -9 4 6 10 25 14 25 6z"/>
<path d="M1958 1783 c7 -3 16 -2 19 1 4 3 -2 6 -13 5 -11 0 -14 -3 -6 -6z"/>
<path d="M4654 1778 c-4 -7 -4 -10 1 -6 4 4 15 2 24 -5 14 -11 14 -10 2 6 -16
20 -18 21 -27 5z"/>
<path d="M1620 1770 c-20 -12 -9 -21 18 -13 12 3 19 9 16 14 -7 11 -15 11 -34
-1z"/>
<path d="M2713 1755 c0 -9 4 -14 9 -13 5 2 10 8 10 13 0 5 -5 11 -10 13 -5 1
-9 -4 -9 -13z"/>
<path d="M1630 1746 c0 -2 7 -7 16 -10 8 -3 12 -2 9 4 -6 10 -25 14 -25 6z"/>
<path d="M2218 1693 c7 -3 16 -2 19 1 4 3 -2 6 -13 5 -11 0 -14 -3 -6 -6z"/>
<path d="M4686 1665 c4 -8 8 -15 10 -15 2 0 4 7 4 15 0 8 -4 15 -10 15 -5 0
-7 -7 -4 -15z"/>
<path d="M4775 1670 c-4 -6 0 -19 8 -28 9 -9 20 -29 26 -45 11 -29 28 -36 28
-12 0 8 -4 15 -8 15 -3 0 -10 8 -13 18 -14 38 -34 64 -41 52z"/>
<path d="M4800 1671 c0 -14 26 -32 35 -23 5 4 5 -1 2 -10 -3 -10 -2 -20 3 -23
6 -4 10 3 10 14 0 10 3 28 6 38 3 10 2 14 -3 8 -11 -14 -33 -17 -33 -5 0 6 -4
10 -10 10 -5 0 -10 -4 -10 -9z"/>
<path d="M4757 1632 c3 -9 12 -24 20 -33 7 -9 10 -19 7 -22 -4 -4 -1 -14 7
-23 7 -9 14 -23 15 -31 2 -8 6 -18 10 -21 4 -4 4 1 1 11 -4 11 -1 20 8 23 8 4
12 10 9 15 -3 5 -11 6 -17 3 -7 -4 -9 -4 -5 1 4 4 -2 19 -12 33 -11 13 -20 30
-20 37 0 7 -7 15 -14 18 -11 4 -13 1 -9 -11z"/>
<path d="M4910 1630 c0 -5 5 -10 11 -10 5 0 7 5 4 10 -3 6 -8 10 -11 10 -2 0
-4 -4 -4 -10z"/>
<path d="M2228 1613 c7 -3 16 -2 19 1 4 3 -2 6 -13 5 -11 0 -14 -3 -6 -6z"/>
<path d="M2686 1601 c-4 -5 3 -7 14 -4 23 6 26 13 6 13 -8 0 -17 -4 -20 -9z"/>
<path d="M2750 1590 c-9 -16 -8 -20 5 -20 9 0 13 -4 10 -10 -4 -6 6 -10 22 -9
25 0 26 1 8 9 -11 5 -14 9 -7 9 6 1 12 5 12 11 0 5 -8 6 -17 3 -16 -6 -16 -5
-4 10 12 15 11 17 -2 17 -9 0 -21 -9 -27 -20z"/>
<path d="M2870 1595 c0 -8 2 -15 4 -15 2 0 6 7 10 15 3 8 1 15 -4 15 -6 0 -10
-7 -10 -15z"/>
<path d="M2240 1596 c0 -2 7 -7 16 -10 8 -3 12 -2 9 4 -6 10 -25 14 -25 6z"/>
<path d="M2820 1585 c0 -8 2 -15 4 -15 2 0 6 7 10 15 3 8 1 15 -4 15 -6 0 -10
-7 -10 -15z"/>
<path d="M4550 1589 c0 -5 5 -7 12 -3 8 5 9 2 5 -10 -4 -10 -3 -15 3 -11 6 3
10 1 10 -5 0 -6 4 -9 9 -5 5 3 12 1 16 -5 3 -5 -1 -10 -9 -10 -8 0 -18 -4 -21
-10 -3 -5 0 -7 8 -4 8 3 28 -7 46 -21 17 -15 31 -22 31 -16 0 6 -4 11 -8 11
-4 0 -14 16 -21 35 -14 40 -81 85 -81 54z"/>
<path d="M2846 1573 c-6 -14 -5 -15 5 -6 7 7 10 15 7 18 -3 3 -9 -2 -12 -12z"/>
<path d="M4635 1580 c-3 -6 -3 -20 0 -31 6 -17 9 -19 17 -8 7 10 8 8 5 -8 -3
-13 -2 -25 3 -28 4 -2 10 -23 14 -46 8 -47 11 -48 19 -1 4 20 3 31 -3 27 -6
-3 -7 1 -4 9 3 9 1 16 -5 16 -6 0 -10 3 -9 8 5 17 -14 52 -24 46 -7 -5 -9 -1
-5 9 7 19 2 23 -8 7z"/>
<path d="M3620 1542 c0 -5 7 -13 16 -16 10 -4 14 -1 12 6 -5 15 -28 23 -28 10z"/>
<path d="M4455 1540 c3 -5 8 -10 11 -10 2 0 4 5 4 10 0 6 -5 10 -11 10 -5 0
-7 -4 -4 -10z"/>
<path d="M3700 1520 c0 -5 5 -10 11 -10 5 0 7 5 4 10 -3 6 -8 10 -11 10 -2 0
-4 -4 -4 -10z"/>
<path d="M4690 1520 c0 -5 5 -10 10 -10 6 0 10 5 10 10 0 6 -4 10 -10 10 -5 0
-10 -4 -10 -10z"/>
<path d="M2713 1503 c9 -2 23 -2 30 0 6 3 -1 5 -18 5 -16 0 -22 -2 -12 -5z"/>
<path d="M2761 1489 c-12 -12 -20 -23 -18 -26 7 -6 57 27 57 38 0 15 -15 10
-39 -12z"/>
<path d="M2605 1475 c-22 -14 -35 -25 -30 -25 12 0 75 38 75 45 0 7 -1 7 -45
-20z"/>
<path d="M2670 1460 c-8 -5 -10 -10 -5 -10 6 0 17 5 25 10 8 5 11 10 5 10 -5
0 -17 -5 -25 -10z"/>
<path d="M2800 1461 c0 -6 5 -13 10 -16 6 -3 10 1 10 9 0 9 -4 16 -10 16 -5 0
-10 -4 -10 -9z"/>
<path d="M4305 1460 c3 -5 8 -10 11 -10 2 0 4 5 4 10 0 6 -5 10 -11 10 -5 0
-7 -4 -4 -10z"/>
<path d="M4334 1450 c0 -10 6 -16 13 -13 7 3 13 9 13 13 0 4 -6 10 -13 13 -7
3 -13 -3 -13 -13z"/>
<path d="M3590 1451 c0 -5 5 -13 10 -16 6 -3 10 -2 10 4 0 5 -4 13 -10 16 -5
3 -10 2 -10 -4z"/>
<path d="M3639 1436 c14 -14 29 -26 34 -26 13 0 -12 29 -37 42 -19 10 -18 8 3
-16z"/>
<path d="M4375 1450 c-4 -6 -2 -17 4 -23 15 -15 25 -2 13 19 -7 12 -11 13 -17
4z"/>
<path d="M4050 1446 c0 -2 7 -7 16 -10 8 -3 12 -2 9 4 -6 10 -25 14 -25 6z"/>
<path d="M4410 1431 c0 -6 4 -13 10 -16 6 -3 7 1 4 9 -7 18 -14 21 -14 7z"/>
<path d="M4158 1395 c24 -21 39 -42 36 -48 -5 -9 -3 -9 6 0 10 10 6 17 -20 40
-18 15 -40 32 -49 37 -9 5 3 -8 27 -29z"/>
<path d="M4005 1402 c15 -16 62 -25 69 -13 4 6 -1 11 -11 11 -10 0 -29 3 -43
6 -17 5 -22 4 -15 -4z"/>
<path d="M4340 1395 c7 -8 17 -12 22 -9 6 4 5 10 -3 15 -22 14 -33 10 -19 -6z"/>
<path d="M4094 1387 c-4 -7 -4 -9 1 -5 4 4 23 1 42 -7 18 -8 31 -10 28 -6 -10
17 -64 31 -71 18z"/>
<path d="M3910 1360 c0 -7 24 -20 36 -20 13 0 1 19 -16 23 -11 3 -20 2 -20 -3z"/>
<path d="M4050 1366 c0 -2 7 -7 16 -10 8 -3 12 -2 9 4 -6 10 -25 14 -25 6z"/>
<path d="M3840 1344 c8 -8 4 -13 -15 -18 -14 -4 -30 -4 -35 -1 -6 4 -10 -1
-10 -9 0 -9 0 -19 0 -23 0 -5 5 -8 11 -8 6 0 24 -16 40 -35 16 -19 26 -27 23
-17 -4 12 -1 17 11 17 10 0 13 4 9 13 -6 8 -3 8 9 -1 31 -25 41 -1 11 25 -16
13 -23 22 -16 18 7 -4 12 0 12 10 0 13 4 14 23 4 l22 -12 -23 25 c-23 26 -93
38 -72 12z"/>
<path d="M3970 1350 c8 -5 20 -10 25 -10 6 0 3 5 -5 10 -8 5 -19 10 -25 10 -5
0 -3 -5 5 -10z"/>
<path d="M4010 1346 c0 -2 9 -6 20 -9 11 -3 20 -1 20 4 0 5 -9 9 -20 9 -11 0
-20 -2 -20 -4z"/>
<path d="M4164 1343 c7 -12 -5 -18 -27 -14 -5 1 -6 -3 -2 -9 3 -6 11 -7 17 -4
7 5 9 1 5 -9 -3 -9 1 -18 9 -21 23 -9 24 -8 15 17 -5 12 -9 26 -9 30 0 5 -4
12 -8 15 -4 4 -4 1 0 -5z"/>
<path d="M4240 1254 c0 -8 5 -12 10 -9 6 4 8 11 5 16 -9 14 -15 11 -15 -7z"/>
<path d="M3235 1150 c-3 -16 -2 -37 4 -47 8 -14 10 -8 9 30 -1 54 -4 59 -13
17z"/>
<path d="M3642 1148 c3 -7 13 -15 22 -16 12 -3 17 1 14 10 -3 7 -13 15 -22 16
-12 3 -17 -1 -14 -10z"/>
<path d="M3570 1110 c6 -11 13 -20 16 -20 2 0 0 9 -6 20 -6 11 -13 20 -16 20
-2 0 0 -9 6 -20z"/>
<path d="M3331 1074 c0 -11 3 -14 6 -6 3 7 2 16 -1 19 -3 4 -6 -2 -5 -13z"/>
<path d="M3192 1050 c0 -14 2 -19 5 -12 2 6 2 18 0 25 -3 6 -5 1 -5 -13z"/>
<path d="M3321 1034 c0 -11 3 -14 6 -6 3 7 2 16 -1 19 -3 4 -6 -2 -5 -13z"/>
<path d="M3431 1034 c0 -11 3 -14 6 -6 3 7 2 16 -1 19 -3 4 -6 -2 -5 -13z"/>
</g>
</svg>
